<?xml version="1.0" encoding="utf-8"?>
<!-- Generator: Adobe Illustrator 23.0.3, SVG Export Plug-In . SVG Version: 6.00 Build 0)  -->
<svg version="1.1" id="Layer_1" xmlns="http://www.w3.org/2000/svg" xmlns:xlink="http://www.w3.org/1999/xlink" x="0px" y="0px"
	 viewBox="0 0 1075.1 751" style="enable-background:new 0 0 1075.1 751;" xml:space="preserve">
<style type="text/css">
	.st0{clip-path:url(#SVGID_2_);}
	.st1{fill:#FFFFFF;}
	.st2{fill:#232323;}
	.st3{fill:#A5A4A4;}
	.st4{fill:#E3E1FD;}
	.st5{fill:#4527FF;}
	.st6{fill:#BCBCBC;}
	.st7{clip-path:url(#SVGID_4_);}
</style>
<g>
	<defs>
		<rect id="SVGID_1_" x="-0.4" y="41.4" width="1075.5" height="667.6"/>
	</defs>
	<clipPath id="SVGID_2_">
		<use xlink:href="#SVGID_1_"  style="overflow:visible;"/>
	</clipPath>
	<g class="st0">
		<path class="st1" d="M3.4,599.9v13l1.2,8l4.3,9.2l8,7.4l10.5,4.3l49.4-1.2l90.1,0.6l91.4-0.6l99.4-0.6h106.2l103.7,0.6h119.8
			l122.3,1.2H893l120.4-134.5l-48.2-198.9l-8-28.5l1.8-37.2l-1.8-165.5l-3.7-9.3l-7.4-8.7l-9.3-9.4l-25.9-5l-13-1.8l-744.6,2.5
			l-13,2.5l-10.5,5.6l-8,6.8l-7.4,11.2l-1.9,14.3l0.6,14.9l0.6,14.3v48.3l-0.6,11.2l1.8,49.6l-1.9,34.7l-1.2,97.2l1.2,127.7v113.4
			H50.9l-47.5-0.6L3.4,599.9z"/>
		<path class="st2" d="M142.8,567h782.9V102.7H142.8L142.8,567z M146.6,106.4H922v456.8H146.6V106.4z"/>
		<path class="st2" d="M538,87.2c5.8,0,10.6-4.7,10.6-10.5c0-5.8-4.7-10.6-10.5-10.6c-5.8,0-10.6,4.7-10.6,10.5c0,0,0,0,0,0
			C526.9,82.3,531.8,87.2,538,87.2z M538,73c1.8,0.6,3.1,1.9,2.5,3.7c-0.1,1.3-1.1,2.4-2.5,2.5c-1.9,0.6-3.1-0.6-3.7-2.5
			c-0.6-1.9,0.6-3.1,2.5-3.7H538z"/>
		<path class="st2" d="M985,593.6h-24.1V87.2c0.1-25.2-20.3-45.8-45.5-45.9c-0.1,0-0.1,0-0.2,0h-760c-25.2,0-45.7,20.4-45.7,45.7
			c0,0.1,0,0.1,0,0.2v506.4H-0.4v20.5c0.6,16.7,13.6,29.7,30.3,29.7h924.8c16.7,0,30.3-13.6,30.3-30.3c0,0,0-0.1,0-0.1v-12.4h48.8
			v13h7.4 M116.9,87.2c0-21.1,17.3-37.8,38.3-38.4h760.6c21.1,0.1,38.2,17.3,38.3,38.4v506.4H116.9V87.2z M977.6,613.5
			c-0.2,12.6-10.3,22.7-22.8,22.9H29.9c-10.9,0-20.3-7.8-22.2-18.6h931.7v-3.7H7v-13H977L977.6,613.5z"/>
		<g>
			<path class="st3" d="M915.8,163.5H283.6v1.3h632.2V163.5z"/>
			<path class="st3" d="M915.8,205.6H283.6v1.2h632.2V205.6z"/>
			<path class="st3" d="M915.8,247.8H283.6v1.2h632.2V247.8z"/>
			<path class="st3" d="M915.8,289.9H283.6v1.2h632.2V289.9z"/>
			<path class="st3" d="M915.8,332.7H283.6v1.2h632.2V332.7z"/>
			<path class="st3" d="M915.8,374.8H283.6v1.2h632.2V374.8z"/>
			<path class="st3" d="M915.8,417H283.6v1.2h632.2V417z"/>
			<path class="st3" d="M915.8,459.1H283.6v1.2h632.2V459.1z"/>
			<path class="st3" d="M915.8,501.9H283.6v1.2h632.2V501.9z"/>
		</g>
		<path class="st4" d="M315.8,327.7h584.7c11.9,0.2,21.5,9.8,21.6,21.7v9.3c-0.1,11.9-9.7,21.5-21.6,21.7H315.8
			c-11.9-0.2-21.5-9.8-21.6-21.7v-9.3c-0.1-11.9,9.5-21.6,21.3-21.7C315.6,327.7,315.7,327.7,315.8,327.7z"/>
		<path class="st1" d="M1048.6,281.2h-18.5v6.2c-0.3,6.3-5.5,11.2-11.7,11.2H927c-6.5,0-11.7-5.3-11.7-11.8c0,0,0,0,0,0v-6.2h-18.5
			c-10.7,0.2-19.3,9-19.1,19.7c0,0,0,0.1,0,0.1v381.2c0,10.6,8.6,19.1,19.1,19.2h151.9c10.5,0,19.8-8.7,19.8-19.2V300.5
			C1067.7,289.9,1059.1,280.6,1048.6,281.2L1048.6,281.2z"/>
		<path class="st2" d="M1048.6,274.3H896.7c-15,0.2-27,12.3-27.1,27.3v381.2c0.1,15,12.1,27.1,27.1,27.3h151.9
			c15-0.2,27-12.3,27.1-27.3V301.6C1075.1,286.7,1063.4,274.3,1048.6,274.3L1048.6,274.3z M1067.7,682.8
			c-0.1,10.9-8.9,19.7-19.7,19.8H896c-10.6-0.1-19.1-8.6-19.1-19.2V301.6c0-10.5,8.7-19.8,19.1-19.8h18.5v6.2
			c0.3,6.3,5.5,11.2,11.7,11.2h92c6.5,0,11.7-5.3,11.7-11.8c0,0,0,0,0,0v-6.2h18.5c10.9,0.1,19.7,8.9,19.8,19.8L1067.7,682.8z"/>
		<path class="st1" d="M414.5,229.8h253.1c9.9,0,18,8,18,17.9c0,0,0,0,0,0v234.9c0,9.9-8,17.9-17.9,18h0H414.5
			c-9.9,0-17.9-8.1-17.9-18v0V247.8C396,237.9,404,229.8,414.5,229.8L414.5,229.8z"/>
		<path class="st5" d="M667.6,504.4H414.5c-11-0.1-20-8.8-20.4-19.8V249c0.1-11.3,9.1-20.4,20.4-20.5h253.1
			c11.2,0.1,20.3,9.2,20.4,20.5v235C687.4,495.7,678.8,504.4,667.6,504.4z M414.5,233.5c-8.5-0.1-15.4,6.7-15.4,15.2
			c0,0.1,0,0.2,0,0.3v234.9c-0.1,8.5,6.7,15.4,15.1,15.5c0.1,0,0.2,0,0.3,0h253.1c8.5,0.1,15.4-6.7,15.4-15.2c0-0.1,0-0.2,0-0.3V249
			c0.1-8.5-6.7-15.4-15.1-15.5c-0.1,0-0.2,0-0.3,0L414.5,233.5z"/>
		<path class="st5" d="M494.2,420.7h92c8,0,13.6,8.1,13.6,16.7v1.9c0,9.9-6.8,16.7-13.6,16.7h-92c-8,0-13.6-8.1-13.6-16.7v-1.2
			C480,428.8,486.7,420.7,494.2,420.7z"/>
		<path class="st2" d="M625,358.7H457.1c-4.4-0.1-7.9-3.7-8-8.1V337c0.1-4.2,3.6-7.6,7.9-7.4c0,0,0.1,0,0.1,0H625
			c4.4,0.1,7.9,3.7,8,8v13.6C632.7,355.4,629.2,358.7,625,358.7z M457.1,332.7c-2.7,0-4.9,2.1-4.9,4.8c0,0,0,0.1,0,0.1v13.6
			c0,2.7,2.1,4.9,4.8,5c0,0,0.1,0,0.1,0H625c2.7,0,4.9-2.1,4.9-4.8c0,0,0-0.1,0-0.1v-13.6c0-2.7-2.1-4.9-4.8-5c0,0-0.1,0-0.1,0
			L457.1,332.7z"/>
		<path class="st4" d="M786.2,148.6c5.8,0,10.6-4.7,10.6-10.5c0-5.8-4.7-10.6-10.5-10.6c-5.8,0-10.6,4.7-10.6,10.5c0,0,0,0,0,0
			C775.7,143.9,780.4,148.6,786.2,148.6L786.2,148.6z"/>
		<path class="st4" d="M829.4,148c5.5,0,9.9-4.4,9.9-9.9c0-5.5-4.4-9.9-9.9-9.9c-5.5,0-9.9,4.4-9.9,9.9c0,0,0,0,0,0
			C819.5,143.5,823.9,148,829.4,148L829.4,148z"/>
		<path class="st4" d="M873.2,148c5.5,0,9.9-4.4,9.9-9.9c0-5.5-4.4-9.9-9.9-9.9c-5.5,0-9.9,4.4-9.9,9.9c0,0,0,0,0,0
			C863.3,143.5,867.8,148,873.2,148L873.2,148z"/>
		<path class="st4" d="M190.4,460.4h22.2c5.7,0.2,10.3,4.8,10.5,10.5v21.7c-0.2,5.7-4.8,10.4-10.5,10.5h-22.2
			c-5.7-0.2-10.3-4.8-10.5-10.5v-21.7c-0.1-5.8,4.6-10.5,10.3-10.5C190.3,460.4,190.3,460.4,190.4,460.4z"/>
		<path class="st5" d="M200.9,468.4h1.2c0.7,0.1,1.2,0.6,1.2,1.2v24.2c0,0.7-0.6,1.2-1.2,1.2h-1.2c-0.7,0-1.2-0.6-1.2-1.2v-24.2
			C199.7,469,200.2,468.5,200.9,468.4z"/>
		<path class="st5" d="M188.5,482.7v-1.2c0-0.7,0.6-1.2,1.2-1.2h24c0.7,0.1,1.2,0.6,1.2,1.2v1.2c0,0.7-0.6,1.2-1.2,1.2h-24
			C189.1,483.9,188.6,483.4,188.5,482.7L188.5,482.7z"/>
		<g>
			<path class="st6" d="M1041.2,337.6H902.9v1.2h138.3V337.6z"/>
			<path class="st6" d="M1041.2,366.2H902.9v1.2h138.3V366.2z"/>
			<path class="st6" d="M1041.2,394.7H902.9v1.2h138.3V394.7z"/>
			<path class="st6" d="M1041.2,423.8H902.9v1.2h138.3V423.8z"/>
			<path class="st6" d="M1041.2,452.9H902.9v1.2h138.3V452.9z"/>
			<path class="st6" d="M1041.2,481.4H902.9v1.2h138.3V481.4z"/>
			<path class="st6" d="M1041.2,510.6H902.9v1.2h138.3V510.6z"/>
			<path class="st6" d="M1041.2,539.1H902.9v1.2h138.3V539.1z"/>
			<path class="st6" d="M1041.2,568.2H902.9v1.2h138.3V568.2z"/>
			<path class="st6" d="M1041.2,596.7H902.9v1.2h138.3V596.7z"/>
			<path class="st6" d="M1041.2,625.9H902.9v1.2h138.3V625.9z"/>
			<path class="st6" d="M1041.2,654.4H902.9v1.3h138.3V654.4z"/>
		</g>
		<path class="st4" d="M920.8,671.7h11.2c1.3,0.1,2.4,1.1,2.5,2.5v11.2c-0.1,1.3-1.1,2.4-2.5,2.5h-11.2c-1.3-0.1-2.4-1.2-2.5-2.5
			v-11.2C917.7,673,918.9,671.7,920.8,671.7z"/>
		<path class="st4" d="M964,671.7h11.2c1.3,0.1,2.4,1.1,2.5,2.5v11.2c-0.1,1.3-1.1,2.4-2.5,2.5H964c-1.3-0.1-2.4-1.2-2.5-2.5v-11.2
			C961.6,672.9,962.7,671.8,964,671.7z"/>
		<path class="st4" d="M1007.2,671.7h11.2c1.3,0.1,2.4,1.1,2.5,2.5v11.2c-0.1,1.3-1.1,2.4-2.5,2.5h-11.2c-1.3-0.1-2.4-1.2-2.5-2.5
			v-11.2C1004.8,672.9,1005.9,671.8,1007.2,671.7z"/>
		<path class="st5" d="M973.9,444.3h67.9c7.4,0,12.4,6.8,12.4,13.6v1.2c0,8.1-6.2,13.6-12.4,13.6h-67.9c-7.4,0-12.4-6.8-12.4-13.6
			v-1.2C961.5,451.1,967.1,444.3,973.9,444.3z"/>
		<path class="st4" d="M910.4,433.1h30.9c1.5,0.2,2.6,1.6,2.5,3.1v5.6c-0.1,1.3-1.1,2.4-2.5,2.5h-30.9c-1.3-0.1-2.4-1.2-2.5-2.5
			v-5.6C907.7,434.7,908.8,433.3,910.4,433.1z"/>
		<path class="st4" d="M960.3,433.1h5.5c1.5,0.2,2.6,1.6,2.5,3.1v5.6c-0.1,1.3-1.1,2.4-2.5,2.5h-5.5c-1.3-0.1-2.4-1.2-2.5-2.5v-5.6
			C957.2,434.3,958.4,433.1,960.3,433.1z"/>
		<path class="st1" d="M508.4,445.1v-11.8h2.5v9.7h4.8v2.1L508.4,445.1z M521.3,437.7c-0.5,0-0.9,0.2-1.2,0.5
			c-0.3,0.4-0.5,0.9-0.5,1.4h3.5c0-0.5-0.1-1-0.5-1.4C522.2,437.8,521.7,437.6,521.3,437.7L521.3,437.7z M521.6,445.2
			c-2.3,0.2-4.4-1.5-4.6-3.8c0-0.3,0-0.5,0-0.8c-0.1-1.3,0.3-2.5,1.1-3.5c0.8-0.9,2-1.3,3.2-1.2c1.1-0.1,2.2,0.3,3,1.1
			c0.7,0.8,1.1,1.9,1.1,3v1.2h-5.8c0,0.6,0.2,1.2,0.6,1.6c0.4,0.4,1,0.6,1.6,0.6c0.5,0,1.1,0,1.6-0.2c0.5-0.1,1.1-0.3,1.6-0.5v1.9
			c-0.4,0.2-0.9,0.4-1.4,0.5C522.9,445.2,522.3,445.3,521.6,445.2L521.6,445.2z M531.1,443.3c0.5,0,1.1-0.1,1.6-0.3v1.8
			c-0.7,0.3-1.5,0.4-2.2,0.4c-0.8,0.1-1.6-0.2-2.2-0.7c-0.5-0.6-0.7-1.4-0.7-2.2v-4.3h-1.2v-1l1.3-0.8l0.7-1.9h1.6v1.9h2.5v1.8h-2.5
			v4.3c0,0.3,0.1,0.6,0.3,0.8C530.5,443.2,530.8,443.3,531.1,443.3L531.1,443.3z M536.4,433.3l0.1,0.2c-0.4,1.3-0.8,2.6-1.4,3.8
			h-1.8c0.4-1.6,0.6-2.9,0.8-4H536.4z M544.3,442.4c0,0.8-0.3,1.6-1,2.1c-0.9,0.5-1.9,0.8-2.9,0.7c-0.6,0-1.1,0-1.7-0.1
			c-0.4-0.1-0.9-0.2-1.3-0.4v-2c0.5,0.2,1,0.4,1.6,0.5c0.5,0.1,1.1,0.2,1.6,0.2c0.9,0,1.3-0.3,1.3-0.8c0-0.2-0.1-0.3-0.2-0.5
			c-0.2-0.2-0.4-0.3-0.6-0.4c-0.3-0.2-0.7-0.3-1.2-0.5c-0.6-0.2-1.1-0.5-1.6-0.8c-0.3-0.2-0.5-0.5-0.7-0.8c-0.2-0.4-0.2-0.8-0.2-1.2
			c0-0.7,0.3-1.4,0.9-1.8c0.8-0.5,1.7-0.7,2.6-0.7c1.1,0,2.2,0.2,3.2,0.7l-0.7,1.8c-0.5-0.2-0.9-0.4-1.3-0.5
			c-0.4-0.1-0.8-0.2-1.2-0.2c-0.7,0-1.1,0.2-1.1,0.6c0,0.2,0.1,0.5,0.4,0.6c0.5,0.3,1,0.5,1.6,0.7c0.6,0.2,1.1,0.5,1.6,0.8
			c0.3,0.2,0.6,0.5,0.7,0.9C544.4,441.6,544.4,442,544.3,442.4L544.3,442.4z M558.3,436v1.3l-1.4,0.4c0.3,0.4,0.4,0.9,0.4,1.4
			c0,0.9-0.3,1.7-1,2.3c-0.8,0.6-1.8,0.9-2.8,0.8H553h-0.4c-0.2,0.1-0.4,0.4-0.4,0.7c0,0.4,0.5,0.5,1.4,0.5h1.6
			c0.8-0.1,1.6,0.2,2.3,0.6c0.5,0.5,0.8,1.2,0.8,1.9c0,1-0.5,1.9-1.3,2.4c-1.1,0.7-2.5,1-3.8,0.9c-1,0.1-2-0.2-2.9-0.7
			c-0.6-0.4-1-1.1-1-1.8c0-0.5,0.2-1,0.5-1.4c0.4-0.4,0.9-0.7,1.5-0.8c-0.3-0.1-0.5-0.3-0.7-0.5c-0.2-0.2-0.3-0.5-0.3-0.8
			c0-0.3,0.1-0.6,0.3-0.8c0.2-0.3,0.5-0.5,0.9-0.7c-0.5-0.2-0.9-0.5-1.1-1c-0.3-0.5-0.4-1-0.4-1.6c0-0.9,0.3-1.7,1-2.3
			c0.8-0.6,1.8-0.9,2.7-0.8c0.3,0,0.6,0,0.9,0l0.7,0.1L558.3,436z M551.4,446.3c0,0.3,0.2,0.6,0.5,0.8c0.4,0.2,0.9,0.3,1.4,0.3
			c0.7,0,1.4-0.1,2.1-0.4c0.4-0.1,0.7-0.5,0.7-1c0-0.3-0.1-0.6-0.4-0.7c-0.4-0.1-0.9-0.2-1.4-0.2H553c-0.4,0-0.8,0.1-1.1,0.3
			C551.5,445.7,551.4,446,551.4,446.3L551.4,446.3z M552.3,439c0,0.4,0.1,0.8,0.3,1.2c0.3,0.3,0.6,0.4,1,0.4c0.4,0,0.8-0.1,1-0.4
			c0.2-0.3,0.3-0.8,0.3-1.2c0-1.1-0.4-1.6-1.3-1.6C552.7,437.4,552.3,437.9,552.3,439L552.3,439z M561.8,440.6c0,0.7,0.1,1.4,0.4,2
			c0.6,0.8,1.8,0.9,2.6,0.3c0.1-0.1,0.2-0.2,0.3-0.3c0.3-0.6,0.5-1.3,0.4-2c0-0.7-0.1-1.4-0.4-2c-0.3-0.5-0.9-0.7-1.4-0.7
			c-0.6,0-1.1,0.2-1.4,0.7C561.9,439.1,561.7,439.8,561.8,440.6L561.8,440.6z M568.1,440.6c0.1,1.3-0.3,2.5-1.2,3.4
			c-0.8,0.8-2,1.3-3.2,1.2c-0.8,0-1.6-0.2-2.3-0.6c-0.6-0.4-1.2-0.9-1.5-1.6c-0.4-0.8-0.6-1.6-0.5-2.5c-0.1-1.3,0.3-2.5,1.2-3.4
			c0.8-0.8,2-1.3,3.2-1.2c0.8,0,1.6,0.2,2.3,0.6c0.7,0.4,1.2,0.9,1.5,1.6C567.9,438.9,568,439.7,568.1,440.6L568.1,440.6z
			 M572.1,441.2h-2l-0.4-7.9h2.7L572.1,441.2z M569.7,443.9c0-0.4,0.1-0.7,0.4-1c0.3-0.2,0.7-0.4,1.1-0.3c0.4,0,0.8,0.1,1,0.4
			c0.3,0.3,0.4,0.6,0.4,1c0.1,0.7-0.4,1.3-1.1,1.4c-0.1,0-0.2,0-0.3,0c-0.4,0-0.8-0.1-1.1-0.4C569.8,444.7,569.7,444.3,569.7,443.9
			L569.7,443.9z"/>
		<path class="st2" d="M168,186.4h-2.5v-11.8h6.7v2H168v3h4v2h-4V186.4z M174.3,175.1c0-0.8,0.4-1.2,1.3-1.2s1.3,0.4,1.3,1.2
			c0,0.3-0.1,0.7-0.3,0.9c-0.3,0.2-0.6,0.3-1,0.3C174.7,176.3,174.3,175.9,174.3,175.1L174.3,175.1z M176.9,186.4h-2.5v-8.9h2.5
			V186.4z M181.9,186.4h-2.5v-12.5h2.4L181.9,186.4z M188.3,179c-0.5,0-0.9,0.2-1.2,0.5c-0.3,0.4-0.5,0.9-0.5,1.4h3.3
			c0-0.5-0.1-1-0.5-1.4c-0.3-0.3-0.8-0.5-1.2-0.5H188.3z M188.7,186.6c-1.3,0.1-2.6-0.3-3.6-1.1c-0.9-0.9-1.3-2.1-1.2-3.4
			c-0.1-1.3,0.3-2.5,1.1-3.5c0.8-0.9,2-1.3,3.2-1.2c1.1-0.1,2.2,0.3,3,1.1c0.7,0.8,1.1,1.9,1.1,3v1.2h-5.8c0,0.6,0.2,1.2,0.6,1.6
			c0.4,0.4,1,0.6,1.6,0.6c0.5,0,1.1,0,1.6-0.2c0.5-0.1,1-0.3,1.5-0.5v1.9c-0.4,0.2-0.9,0.4-1.4,0.5c-0.6,0.1-1.2,0.2-1.8,0.1
			L188.7,186.6z M200.6,183.7c0,0.8-0.3,1.6-1,2.1c-0.9,0.5-1.9,0.8-2.9,0.7c-0.5,0-1.1,0-1.6-0.1c-0.4-0.1-0.9-0.2-1.3-0.4v-2
			c0.5,0.2,1,0.4,1.6,0.5c0.5,0.1,1,0.2,1.5,0.2c0.9,0,1.3-0.3,1.3-0.8c0-0.2-0.1-0.3-0.2-0.5c-0.2-0.2-0.4-0.3-0.6-0.4
			c-0.3-0.2-0.7-0.3-1.1-0.5c-0.6-0.2-1.1-0.5-1.6-0.8c-0.3-0.2-0.5-0.5-0.7-0.8c-0.2-0.4-0.2-0.8-0.2-1.2c0-0.7,0.3-1.4,0.9-1.8
			c0.8-0.5,1.7-0.7,2.6-0.7c1.1,0,2.2,0.2,3.2,0.7l-0.7,1.8c-0.4-0.2-0.8-0.3-1.3-0.5c-0.4-0.1-0.8-0.2-1.2-0.2
			c-0.7,0-1.1,0.2-1.1,0.6c0,0.2,0.1,0.5,0.3,0.6c0.5,0.3,1,0.5,1.6,0.7c0.6,0.2,1.1,0.5,1.6,0.8c0.3,0.2,0.5,0.5,0.7,0.8
			c0.1,0.4,0,0.8-0.1,1.1L200.6,183.7z"/>
		<path class="st2" d="M168,216.3h0.8c0.6,0,1.2-0.1,1.7-0.5c0.7-0.7,0.8-1.9,0.1-2.6c-0.4-0.3-1-0.5-1.5-0.4H168V216.3z
			 M173.6,214.5c0.1,1.1-0.4,2.2-1.2,2.9c-1,0.7-2.2,1.1-3.4,1H168v4.2h-2.5v-11.8h3.8c1.1-0.1,2.3,0.3,3.2,0.9
			C173.3,212.4,173.7,213.4,173.6,214.5L173.6,214.5z M184,222.6h-2.5v-5.2c0-1.3-0.5-1.9-1.5-1.9c-0.6-0.1-1.2,0.2-1.5,0.7
			c-0.4,0.7-0.5,1.5-0.4,2.3v4.2h-2.5v-12.5h2.5v2.5v1.4v0.7h0.1c0.6-0.9,1.6-1.4,2.6-1.3c0.9-0.1,1.8,0.3,2.4,0.9
			c0.6,0.7,0.9,1.5,0.8,2.4L184,222.6z M188.5,218c0,0.7,0.1,1.4,0.4,2c0.3,0.5,0.9,0.7,1.4,0.7c0.6,0,1.1-0.2,1.4-0.7
			c0.3-0.6,0.5-1.3,0.4-2c0.1-0.7-0.1-1.4-0.4-2c-0.6-0.8-1.8-0.9-2.6-0.3c-0.1,0.1-0.2,0.2-0.3,0.3
			C188.6,216.7,188.4,217.4,188.5,218z M194.7,218c0.1,1.3-0.3,2.5-1.2,3.4c-0.8,0.9-2,1.3-3.2,1.2c-0.8,0-1.6-0.2-2.3-0.6
			c-0.7-0.4-1.2-0.9-1.6-1.6c-0.4-0.8-0.5-1.6-0.5-2.5c-0.1-1.2,0.3-2.5,1.1-3.4c0.8-0.8,2-1.3,3.2-1.2c0.8,0,1.6,0.2,2.3,0.6
			c0.7,0.3,1.2,0.9,1.6,1.6C194.5,216.4,194.7,217.2,194.7,218L194.7,218z M200.5,220.8c0.5,0,1.1-0.1,1.6-0.3v1.8
			c-0.7,0.3-1.5,0.4-2.2,0.4c-0.8,0.1-1.6-0.2-2.2-0.7c-0.5-0.6-0.7-1.4-0.7-2.2v-4.3h-1.2v-1l1.4-0.8l0.7-1.9h1.6v1.9h2.5v1.8h-2.6
			v4.3c0,0.3,0.1,0.6,0.3,0.8C199.9,220.7,200.2,220.8,200.5,220.8L200.5,220.8z M205.8,218c0,0.7,0.1,1.4,0.4,2
			c0.6,0.8,1.8,0.9,2.6,0.3c0.1-0.1,0.2-0.2,0.3-0.3c0.3-0.6,0.5-1.3,0.4-2c0-0.7-0.1-1.4-0.4-2c-0.6-0.8-1.8-0.9-2.6-0.3
			c-0.1,0.1-0.2,0.2-0.3,0.3C205.9,216.6,205.8,217.3,205.8,218L205.8,218z M212.1,218c0.1,1.3-0.3,2.5-1.2,3.4
			c-0.8,0.9-2,1.3-3.2,1.2c-0.8,0-1.6-0.2-2.3-0.6c-0.6-0.4-1.2-0.9-1.5-1.6c-0.4-0.8-0.6-1.6-0.5-2.5c-0.1-1.3,0.3-2.5,1.2-3.4
			c0.8-0.8,2-1.3,3.2-1.2c0.8,0,1.6,0.2,2.3,0.6c0.7,0.4,1.2,0.9,1.6,1.6C211.9,216.4,212.1,217.2,212.1,218z M220.4,219.9
			c0.1,0.8-0.3,1.6-1,2.1c-0.9,0.5-1.9,0.8-2.9,0.7c-0.6,0-1.1,0-1.7-0.1c-0.4-0.1-0.9-0.2-1.3-0.4v-2c0.5,0.2,1,0.4,1.6,0.5
			c0.5,0.1,1,0.2,1.5,0.2c0.9,0,1.3-0.3,1.3-0.8c0-0.2-0.1-0.3-0.2-0.5c-0.2-0.2-0.4-0.3-0.6-0.4c-0.4-0.2-0.8-0.4-1.1-0.5
			c-0.6-0.2-1.1-0.5-1.6-0.8c-0.3-0.2-0.5-0.5-0.7-0.8c-0.2-0.4-0.2-0.8-0.2-1.2c0-0.7,0.3-1.4,0.9-1.8c0.8-0.5,1.7-0.7,2.6-0.7
			c1.1,0,2.2,0.2,3.2,0.7l-0.7,1.8c-0.4-0.2-0.9-0.4-1.3-0.5c-0.4-0.1-0.8-0.2-1.2-0.2c-0.7,0-1.1,0.2-1.1,0.6
			c0,0.2,0.1,0.5,0.3,0.6c0.5,0.3,1,0.5,1.6,0.7c0.6,0.2,1.1,0.5,1.6,0.8c0.3,0.2,0.5,0.5,0.7,0.9
			C220.4,219.1,220.4,219.5,220.4,219.9z"/>
		<path class="st2" d="M177,258.8h-2.8l-1.6-6.2c0-0.2-0.2-0.7-0.3-1.4c-0.1-0.5-0.2-0.9-0.2-1.4c0,0.3-0.1,0.7-0.2,1.4
			c-0.1,0.7-0.2,1.1-0.3,1.4l-1.6,6.2H167l-3-11.8h2.5l1.6,6.4c0.3,1.2,0.4,2.2,0.6,3.1c0-0.3,0.1-0.8,0.2-1.4
			c0.1-0.6,0.2-1.1,0.3-1.5l1.7-6.6h2.4l1.7,6.6c0.1,0.3,0.2,0.7,0.3,1.3c0.1,0.6,0.2,1.1,0.3,1.6c0-0.4,0.1-0.9,0.3-1.6
			s0.2-1.1,0.3-1.6l1.5-6.4h2.5L177,258.8z M184.9,251.4c-0.5,0-0.9,0.2-1.2,0.5c-0.3,0.4-0.5,0.9-0.5,1.4h3.5c0-0.5-0.1-1-0.5-1.4
			C185.9,251.5,185.5,251.3,184.9,251.4L184.9,251.4z M185.3,258.9c-1.2,0.1-2.5-0.4-3.4-1.2c-0.9-0.9-1.3-2.1-1.2-3.4
			c-0.1-1.3,0.4-2.6,1.2-3.5c0.8-0.9,2-1.3,3.2-1.2c1.1-0.1,2.2,0.3,3,1.1c0.7,0.8,1.1,1.9,1.1,3v1.2h-5.8c0,0.6,0.2,1.2,0.6,1.6
			c0.4,0.4,1,0.6,1.6,0.6c0.5,0,1.1-0.1,1.6-0.2c0.5-0.1,1-0.3,1.5-0.5v1.9c-0.4,0.2-0.9,0.4-1.4,0.5
			C186.6,258.8,186,258.9,185.3,258.9L185.3,258.9z M196,249.6c1,0,1.9,0.4,2.5,1.2c0.6,1,1,2.2,0.9,3.4c0.1,1.2-0.3,2.4-0.9,3.5
			c-0.6,0.8-1.5,1.3-2.5,1.2c-1,0-1.9-0.4-2.5-1.1h-0.2l-0.4,1H191v-12.6h2.5v2.9c0,0.4,0,1-0.1,1.8h0.1
			C194,250,195,249.5,196,249.6L196,249.6z M195.2,251.6c-0.5,0-1,0.2-1.3,0.6c-0.3,0.6-0.5,1.2-0.4,1.8v0.3
			c-0.1,0.7,0.1,1.4,0.4,2.1c0.3,0.4,0.8,0.7,1.4,0.6c0.5,0,1-0.3,1.2-0.7c0.3-0.6,0.5-1.3,0.4-2c0-0.7-0.1-1.4-0.4-2
			C196.2,251.8,195.7,251.5,195.2,251.6L195.2,251.6z"/>
		<path class="st2" d="M176.2,290.1c0.1,1.6-0.4,3.2-1.5,4.5c-1.1,1.1-2.6,1.7-4.1,1.6c-1.6,0.1-3.1-0.5-4.2-1.6
			c-1.9-2.7-1.9-6.3,0-9c1.1-1.1,2.6-1.7,4.2-1.6c1.5-0.1,3.1,0.5,4.1,1.6C175.8,286.8,176.3,288.4,176.2,290.1L176.2,290.1z
			 M167.6,290.1c-0.1,1,0.2,2.1,0.7,3c0.5,0.7,1.4,1.1,2.2,1c2,0,3-1.3,3-4s-1-4-3-4c-0.9-0.1-1.7,0.3-2.2,1
			C167.8,288,167.5,289,167.6,290.1L167.6,290.1z M183.4,288.8h-2.1v7.2h-2.5v-7.2h-1.4v-1.2l1.4-0.7v-0.7c-0.1-0.8,0.2-1.6,0.7-2.2
			c0.7-0.5,1.6-0.8,2.4-0.7c0.8,0,1.5,0.1,2.3,0.4l-0.6,1.8c-0.4-0.1-0.9-0.2-1.4-0.2c-0.3,0-0.6,0.1-0.7,0.3
			c-0.2,0.2-0.3,0.5-0.2,0.8v0.6h2.1L183.4,288.8z M189.8,288.8h-2.1v7.2h-2.5v-7.2h-1.3v-1.2l1.3-0.7v-0.7
			c-0.1-0.8,0.2-1.6,0.8-2.2c0.7-0.5,1.6-0.8,2.4-0.7c0.8,0,1.5,0.1,2.3,0.4l-0.6,1.8c-0.4-0.1-0.9-0.2-1.4-0.2
			c-0.3,0-0.6,0.1-0.8,0.3c-0.2,0.2-0.3,0.5-0.2,0.8v0.6h2.2L189.8,288.8z M193.6,296h-2.5v-12.5h2.5V296z M196.1,284.7
			c0-0.8,0.4-1.2,1.3-1.2s1.3,0.4,1.3,1.2c0,0.3-0.1,0.7-0.3,0.9c-0.3,0.2-0.6,0.3-1,0.3C196.5,285.9,196.1,285.5,196.1,284.7
			L196.1,284.7z M198.6,296h-2.4v-9h2.5L198.6,296z M209.5,296h-2.4v-5.3c0-0.5-0.1-1-0.3-1.5c-0.3-0.3-0.7-0.5-1.1-0.5
			c-0.6-0.1-1.2,0.2-1.5,0.7c-0.4,0.7-0.5,1.5-0.5,2.3v4.2h-2.5v-9h1.9l0.3,1.1h0.1c0.3-0.4,0.7-0.8,1.1-1c0.5-0.2,1-0.3,1.6-0.4
			c0.9-0.1,1.7,0.2,2.4,0.9c0.6,0.7,0.9,1.6,0.8,2.5L209.5,296z M215.8,288.6c-0.5,0-0.9,0.2-1.2,0.5c-0.3,0.4-0.5,0.9-0.5,1.4h3.4
			c0-0.5-0.1-1-0.5-1.4C216.7,288.7,216.3,288.5,215.8,288.6L215.8,288.6z M216.1,296.1c-2.3,0.2-4.4-1.4-4.6-3.7c0-0.3,0-0.6,0-0.9
			c-0.1-1.3,0.3-2.5,1.1-3.5c0.8-0.9,2-1.3,3.2-1.2c1.1-0.1,2.2,0.3,3,1.1c0.7,0.8,1.1,1.9,1.1,3v1.2H214c0,0.6,0.2,1.2,0.6,1.6
			c0.4,0.4,1,0.6,1.6,0.6c0.5,0,1.1,0,1.6-0.2c0.5-0.1,1-0.3,1.5-0.5v1.9c-0.4,0.2-0.9,0.4-1.4,0.5
			C217.4,296.1,216.8,296.1,216.1,296.1L216.1,296.1z M234.1,296h-2.5v-5.3c0-0.5-0.1-1-0.3-1.5c-0.2-0.3-0.6-0.5-1-0.5
			c-0.5,0-1.1,0.2-1.4,0.7c-0.3,0.7-0.5,1.5-0.4,2.3v4.2h-2.5v-9h1.9l0.3,1.1h0.1c0.2-0.4,0.6-0.7,1.1-1c0.5-0.3,1-0.4,1.6-0.4
			c1.1-0.1,2.2,0.4,2.7,1.3h0.2c0.2-0.4,0.6-0.8,1.1-1c0.5-0.2,1-0.4,1.6-0.4c0.8-0.1,1.7,0.2,2.3,0.8c0.6,0.7,0.9,1.6,0.8,2.5v5.9
			h-2.5v-5.3c0-0.5-0.1-1-0.3-1.5c-0.2-0.3-0.6-0.5-1-0.5c-0.5,0-1,0.2-1.3,0.6c-0.3,0.6-0.5,1.3-0.4,2L234.1,296z M244.2,291.5
			c0,0.7,0.1,1.4,0.4,2c0.3,0.5,0.9,0.7,1.4,0.7c0.6,0,1.1-0.2,1.4-0.7c0.3-0.6,0.5-1.3,0.4-2c0-0.7-0.1-1.4-0.4-2
			c-0.3-0.5-0.9-0.7-1.4-0.7c-0.6,0-1.1,0.2-1.4,0.7C244.3,290.1,244.2,290.8,244.2,291.5L244.2,291.5z M250.5,291.5
			c0.1,1.3-0.3,2.5-1.1,3.4c-0.8,0.8-2,1.3-3.2,1.2c-0.8,0-1.6-0.2-2.3-0.6c-0.7-0.4-1.2-0.9-1.6-1.6c-0.4-0.8-0.5-1.6-0.5-2.5
			c-0.1-1.2,0.3-2.5,1.1-3.4c0.8-0.8,2-1.3,3.2-1.2c0.8,0,1.6,0.2,2.3,0.6c0.7,0.4,1.2,0.9,1.6,1.6
			C250.3,289.8,250.5,290.6,250.5,291.5L250.5,291.5z M255.3,296.1c-1,0-1.9-0.4-2.5-1.2c-1.2-2.1-1.2-4.7,0-6.9
			c0.6-0.8,1.5-1.3,2.5-1.2c1,0,2,0.5,2.6,1.3c-0.1-0.6-0.2-1.2-0.2-1.8v-2.9h2.5V296h-1.8l-0.5-1.2h-0.1
			C257.3,295.7,256.4,296.2,255.3,296.1L255.3,296.1z M256.2,294.2c0.5,0.1,1-0.1,1.4-0.5c0.3-0.6,0.5-1.2,0.5-1.9v-0.3
			c0.1-0.7-0.1-1.4-0.4-2.1c-0.3-0.4-0.9-0.7-1.5-0.6c-0.5,0-1,0.3-1.3,0.7c-0.3,0.6-0.5,1.3-0.4,2c0,0.7,0.1,1.4,0.5,2
			C255.2,294,255.7,294.2,256.2,294.2L256.2,294.2z M266.6,288.6c-0.5,0-0.9,0.2-1.2,0.5c-0.3,0.4-0.5,0.9-0.5,1.4h3.4
			c0-0.5-0.1-1-0.5-1.4C267.6,288.7,267.1,288.5,266.6,288.6L266.6,288.6z M267,296.1c-1.2,0.1-2.5-0.4-3.4-1.2
			c-0.9-0.9-1.3-2.2-1.2-3.4c-0.1-1.3,0.3-2.5,1.1-3.5c0.8-0.9,2-1.3,3.2-1.2c1.1-0.1,2.2,0.3,3,1.1c0.7,0.8,1.1,1.9,1.1,3v1.2h-5.8
			c0,0.6,0.2,1.2,0.6,1.6c0.4,0.4,1,0.6,1.6,0.6c0.5,0,1.1,0,1.6-0.2c0.5-0.1,1.1-0.3,1.6-0.5v1.9c-0.4,0.2-0.9,0.4-1.4,0.5
			C268.3,296.1,267.6,296.1,267,296.1L267,296.1z"/>
		<path class="st1" d="M992.4,462.1c0,1-0.4,1.9-1.1,2.5c-0.9,0.7-2.1,1-3.2,0.9c-1.1,0-2.3-0.2-3.3-0.7v-2.3c0.6,0.3,1.3,0.6,2,0.7
			c0.5,0.1,1,0.2,1.5,0.2c0.4,0,0.9-0.1,1.3-0.3c0.3-0.2,0.5-0.6,0.4-0.9c0-0.2-0.1-0.4-0.2-0.6c-0.2-0.2-0.4-0.4-0.6-0.5
			c-0.5-0.3-1-0.6-1.6-0.8c-0.6-0.3-1.1-0.6-1.6-1c-0.4-0.3-0.7-0.7-0.9-1.1c-0.2-0.4-0.3-0.9-0.3-1.4c0-0.9,0.3-1.9,1.1-2.5
			c0.8-0.6,1.9-0.9,2.9-0.9c0.6,0,1.2,0.1,1.8,0.2c0.6,0.2,1.2,0.4,1.7,0.6l-0.8,1.9c-0.5-0.2-1.1-0.4-1.6-0.5
			c-0.4-0.1-0.8-0.1-1.2-0.1c-0.4,0-0.8,0.1-1.1,0.3c-0.3,0.2-0.4,0.5-0.4,0.9c0,0.2,0,0.4,0.2,0.6c0.1,0.2,0.3,0.4,0.5,0.5
			c0.5,0.3,1,0.6,1.6,0.8c0.9,0.3,1.6,0.9,2.2,1.6C992.2,460.8,992.4,461.4,992.4,462.1L992.4,462.1z M1002.7,465.4h-2.5v-5.2
			c0-1.3-0.5-2-1.5-2c-0.6,0-1.2,0.2-1.5,0.7c-0.4,0.7-0.5,1.5-0.5,2.3v4.2h-2.4v-12.5h2.4v2.6c0,0.2,0,0.7,0,1.4v0.7h0.1
			c0.6-0.9,1.6-1.4,2.6-1.3c0.9-0.1,1.8,0.3,2.4,0.9c0.6,0.7,0.9,1.5,0.8,2.4L1002.7,465.4z M1010.9,465.4l-0.5-1.2
			c-0.3,0.5-0.8,0.8-1.3,1.1c-0.5,0.2-1.1,0.3-1.7,0.3c-0.8,0-1.5-0.2-2-0.7c-0.5-0.6-0.8-1.3-0.7-2.1c-0.1-0.8,0.3-1.6,1-2.1
			c0.9-0.5,2-0.8,3-0.7h1.6v-0.4c0.1-0.7-0.4-1.3-1.1-1.4c-0.1,0-0.2,0-0.3,0c-0.9,0-1.7,0.3-2.5,0.7l-0.8-1.6
			c1.1-0.5,2.2-0.8,3.4-0.8c1-0.1,2,0.2,2.8,0.8c0.7,0.6,1,1.5,1,2.4v6L1010.9,465.4z M1010.2,461.3h-0.9c-0.6,0-1.1,0.1-1.6,0.4
			c-0.4,0.2-0.6,0.7-0.5,1.1c0,0.7,0.4,1,1.2,1c0.5,0,1-0.2,1.4-0.5c0.3-0.3,0.5-0.8,0.5-1.3L1010.2,461.3z M1020.2,456.2
			c0.3,0,0.6,0,0.8,0.1l-0.2,2.3c-0.2-0.1-0.5-0.1-0.7-0.1c-0.7,0-1.3,0.2-1.8,0.6c-0.5,0.4-0.7,1.1-0.7,1.7v4.6h-2.5v-9h1.9
			l0.4,1.5h0.1c0.3-0.5,0.7-0.9,1.1-1.2C1019.1,456.4,1019.6,456.3,1020.2,456.2L1020.2,456.2z M1026.4,458c-0.5,0-0.9,0.2-1.2,0.5
			c-0.3,0.4-0.5,0.9-0.5,1.4h3.4c0-0.5-0.1-1-0.5-1.4C1027.3,458.2,1026.8,458,1026.4,458L1026.4,458z M1026.7,465.6
			c-1.2,0.1-2.5-0.4-3.4-1.2c-0.9-0.9-1.3-2.1-1.2-3.4c-0.1-1.3,0.3-2.5,1.1-3.5c1.7-1.6,4.3-1.7,6.1-0.2c0.7,0.8,1.1,1.9,1.1,3v1.2
			h-5.8c0,0.6,0.2,1.2,0.6,1.6c0.4,0.4,1,0.6,1.6,0.6c0.5,0,1.1-0.1,1.6-0.2c0.6-0.1,1.1-0.3,1.6-0.5v1.9c-0.4,0.2-0.9,0.4-1.4,0.5
			C1028,465.5,1027.4,465.6,1026.7,465.6z"/>
		<path class="st2" d="M428.9,292.3c-1.4,0-2.8-0.3-4-0.9c-3.6-2.1-4.9-6.7-2.8-10.3c0,0,0,0,0,0c0.7-1.1,1.6-2,2.8-2.7
			c1.2-0.7,2.6-1,4-1c1.2,0,2.3,0.2,3.4,0.7c1,0.4,1.9,1.1,2.6,1.9l-2.1,2c-0.9-1.1-2.2-1.7-3.6-1.7c-0.8,0-1.7,0.2-2.4,0.6
			c-0.7,0.4-1.2,0.9-1.6,1.6c-0.8,1.5-0.8,3.3,0,4.8c0.4,0.7,0.9,1.2,1.6,1.6c0.7,0.4,1.6,0.6,2.4,0.6c1.4,0,2.7-0.6,3.6-1.7l2.1,2
			c-0.7,0.8-1.6,1.5-2.6,1.9C431.2,292,430.1,292.2,428.9,292.3L428.9,292.3z M439.9,282.4c0.4-0.6,1-1,1.6-1.2
			c0.7-0.3,1.5-0.4,2.3-0.4v3h-0.7c-0.8,0-1.6,0.2-2.2,0.8c-0.6,0.6-0.8,1.5-0.8,2.3v5.2h-3.2v-11.2h3.1L439.9,282.4z M456.4,286.5
			c0,0,0,0.3,0,0.9H448c0.1,0.6,0.5,1.2,1.1,1.6c0.6,0.4,1.4,0.6,2.1,0.6c0.5,0,1.1-0.1,1.6-0.2c0.5-0.2,0.9-0.5,1.3-0.8l1.7,1.9
			c-1.2,1.2-2.9,1.9-4.6,1.8c-1.1,0-2.3-0.2-3.3-0.7c-0.9-0.5-1.7-1.2-2.2-2c-0.5-0.9-0.8-1.9-0.8-2.9c0-1,0.3-2,0.8-2.9
			c0.5-0.9,1.2-1.6,2.1-2c1.9-1,4.1-1,6,0c0.9,0.5,1.6,1.2,2.1,2C456.3,284.4,456.5,285.4,456.4,286.5L456.4,286.5z M450.7,283.2
			c-0.7,0-1.3,0.2-1.8,0.6c-0.5,0.4-0.8,1-0.9,1.7h5.5c-0.1-0.6-0.4-1.2-0.9-1.6C452,283.4,451.3,283.1,450.7,283.2L450.7,283.2z
			 M462.7,280.8c1.4-0.1,2.8,0.4,4,1.2c1,1,1.5,2.3,1.4,3.7v6.4h-3v-1.4c-0.7,1.1-2,1.7-3.4,1.6c-0.8,0-1.5-0.1-2.2-0.4
			c-0.6-0.2-1.1-0.7-1.4-1.2c-0.3-0.5-0.5-1.1-0.5-1.7c0-0.9,0.4-1.9,1.1-2.4c1.1-0.7,2.3-1,3.6-0.9h2.6c0-0.6-0.2-1.2-0.6-1.6
			c-0.6-0.4-1.2-0.6-1.9-0.6c-0.6,0-1.2,0.1-1.7,0.3c-0.5,0.2-1,0.4-1.5,0.7l-1.1-2.2c0.7-0.4,1.4-0.8,2.2-1
			C460.9,280.9,461.8,280.7,462.7,280.8L462.7,280.8z M462.5,290c0.5,0,1-0.1,1.5-0.4c0.4-0.3,0.8-0.7,0.9-1.1v-1.1h-2.2
			c-1.3,0-2,0.4-2,1.3c0,0.4,0.2,0.8,0.5,1C461.5,289.9,462,290,462.5,290L462.5,290z M478.1,291.5c-0.3,0.3-0.7,0.4-1.2,0.5
			c-0.5,0.1-1,0.2-1.5,0.2c-1.1,0.1-2.2-0.3-3.1-1c-0.8-0.8-1.2-1.9-1.1-3v-4.6h-1.7v-2.6h1.7v-2.7h3.2v2.7h2.8v2.5h-2.7v4.5
			c0,0.4,0.1,0.8,0.4,1.1c0.3,0.3,0.7,0.4,1,0.4c0.5,0,0.9-0.1,1.3-0.4L478.1,291.5z M490.4,286.5c0,0,0,0.3,0,0.9H482
			c0.1,0.6,0.5,1.2,1.1,1.6c0.6,0.4,1.3,0.6,2.1,0.6c0.5,0,1.1-0.1,1.6-0.2c0.5-0.2,0.9-0.5,1.3-0.8l1.7,1.9
			c-1.2,1.3-2.9,1.9-4.6,1.8c-1.1,0-2.3-0.2-3.3-0.7c-0.9-0.5-1.7-1.2-2.2-2c-0.5-0.9-0.8-1.9-0.8-2.9c0-1,0.3-2,0.8-2.9
			c0.5-0.9,1.1-1.6,1.9-2.1c1.9-1,4.1-1,6,0c0.9,0.5,1.6,1.2,2.1,2C490.2,284.4,490.4,285.4,490.4,286.5L490.4,286.5z M484.7,283.2
			c-0.7,0-1.3,0.2-1.8,0.6c-0.5,0.4-0.8,1-0.9,1.7h5.5c-0.1-0.6-0.4-1.2-0.9-1.6C486,283.4,485.4,283.2,484.7,283.2L484.7,283.2z
			 M505.1,280.8c1.2-0.1,2.4,0.4,3.3,1.2c0.9,1,1.4,2.3,1.3,3.7v6.4h-3.2v-5.8c0.1-0.7-0.1-1.4-0.6-2c-0.4-0.5-1-0.7-1.7-0.7
			c-0.7-0.1-1.5,0.2-2,0.7c-0.5,0.6-0.8,1.4-0.7,2.2v5.5h-3.2v-11.2h3.1v1.3c0.4-0.5,1-0.8,1.6-1.1
			C503.7,280.8,504.4,280.7,505.1,280.8L505.1,280.8z M523.6,286.5c0,0,0,0.3,0,0.9h-8.4c0.1,0.6,0.5,1.2,1.1,1.6
			c0.6,0.4,1.4,0.6,2.1,0.6c0.5,0,1.1-0.1,1.6-0.2c0.5-0.2,0.9-0.5,1.3-0.8l1.7,1.9c-1.2,1.3-3,1.9-4.7,1.7c-1.1,0-2.3-0.2-3.3-0.7
			c-0.9-0.5-1.7-1.2-2.2-2c-1-1.8-1-4.1,0-5.9c0.5-0.9,1.2-1.6,2.1-2c1.9-1,4.1-1,6,0c0.9,0.5,1.6,1.2,2.1,2
			C523.4,284.4,523.6,285.4,523.6,286.5L523.6,286.5z M517.9,283.2c-0.7,0-1.3,0.2-1.8,0.6c-0.5,0.4-0.8,1-0.9,1.7h5.5
			c-0.1-0.6-0.4-1.2-0.9-1.6C519.2,283.4,518.6,283.1,517.9,283.2L517.9,283.2z M543.4,280.9l-4,11.2h-3.1l-2.5-6.9l-2.6,6.9h-3.1
			l-4-11.2h3l2.6,7.5l2.7-7.5h2.7l2.6,7.5l2.7-7.5H543.4z M562,276.7V292h-3.1v-1.4c-0.9,1-2.1,1.5-3.5,1.4c-1,0-2-0.2-2.8-0.7
			c-0.8-0.5-1.5-1.2-2-2c-1-1.9-1-4.1,0-6c0.5-0.8,1.1-1.5,2-2c0.9-0.5,1.8-0.7,2.8-0.7c1.2-0.1,2.5,0.4,3.3,1.3v-5.4L562,276.7z
			 M556,289.5c0.8,0,1.5-0.3,2-0.8c0.5-0.6,0.8-1.4,0.8-2.2c0-0.8-0.3-1.6-0.8-2.2c-1.1-1.1-2.9-1.1-4.1,0c0,0,0,0,0,0
			c-0.6,0.6-0.8,1.4-0.8,2.2c0,0.8,0.2,1.6,0.8,2.2C554.5,289.2,555.3,289.5,556,289.5L556,289.5z M570.2,292.1
			c-1.1,0-2.2-0.2-3.2-0.7c-0.9-0.5-1.6-1.2-2.2-2c-1.6-2.6-0.8-6.1,1.8-7.8c0.1-0.1,0.2-0.1,0.3-0.2c1-0.5,2.1-0.8,3.2-0.7
			c1.1,0,2.2,0.2,3.2,0.7c0.9,0.5,1.6,1.2,2.2,2c1.6,2.7,0.8,6.2-1.9,7.8c-0.1,0.1-0.2,0.1-0.3,0.2
			C572.4,291.9,571.3,292.1,570.2,292.1L570.2,292.1z M570.2,289.5c0.8,0,1.5-0.3,2-0.8c0.5-0.6,0.8-1.4,0.8-2.2
			c0-0.8-0.3-1.6-0.8-2.2c-0.5-0.6-1.3-0.9-2-0.8c-0.8,0-1.5,0.3-2,0.8c-0.5,0.6-0.8,1.4-0.8,2.2c0,0.8,0.3,1.6,0.8,2.2
			C568.7,289.2,569.5,289.5,570.2,289.5L570.2,289.5z M583.8,292.1c-1.1,0-2.2-0.2-3.2-0.7c-0.9-0.5-1.7-1.2-2.2-2
			c-1-1.8-1-4.1,0-5.9c0.5-0.9,1.3-1.6,2.2-2c1-0.5,2.1-0.8,3.2-0.7c1.1,0,2.1,0.2,3.1,0.7c0.9,0.5,1.5,1.2,1.9,2.1l-2.5,1.3
			c-0.5-1-1.4-1.6-2.5-1.6c-0.8,0-1.5,0.3-2.1,0.8c-1.1,1.3-1.1,3.2,0,4.5c0.5,0.5,1.3,0.8,2.1,0.8c1.1,0,2.1-0.6,2.5-1.6l2.5,1.4
			c-0.4,0.9-1.1,1.6-1.9,2.1C586,291.8,584.9,292.1,583.8,292.1L583.8,292.1z M601.8,280.9V292h-3.1v-1.4c-0.4,0.5-0.9,0.9-1.5,1.1
			c-0.6,0.2-1.3,0.4-1.9,0.4c-1.3,0.1-2.5-0.4-3.5-1.3c-0.9-1-1.4-2.4-1.3-3.7v-6.3h3.2v5.8c0,1.8,0.7,2.7,2.2,2.7
			c0.7,0,1.4-0.2,1.8-0.7c0.5-0.6,0.8-1.4,0.7-2.2v-5.5L601.8,280.9z M619,280.7c1.2-0.1,2.4,0.4,3.3,1.2c0.9,1,1.3,2.3,1.2,3.7v6.4
			h-3.2v-5.8c0.1-0.7-0.1-1.4-0.6-2c-0.4-0.5-1-0.7-1.6-0.7c-0.7,0-1.3,0.2-1.8,0.7c-0.5,0.6-0.7,1.4-0.7,2.2v5.6h-3.2v-5.8
			c0-1.8-0.7-2.6-2.1-2.6c-0.7,0-1.3,0.2-1.8,0.7c-0.5,0.6-0.7,1.4-0.7,2.2v5.6h-3.2v-11.2h3.1v1.3c0.4-0.5,0.9-0.8,1.5-1.1
			c0.6-0.2,1.3-0.4,2-0.4c0.7,0,1.5,0.2,2.1,0.5c0.6,0.3,1.1,0.8,1.5,1.3c0.5-0.6,1-1,1.7-1.3C617.4,280.8,618.2,280.7,619,280.7
			L619,280.7z M637.4,286.5c0,0,0,0.3,0,0.9H629c0.1,0.6,0.5,1.2,1.1,1.6c0.6,0.4,1.4,0.6,2.1,0.6c0.5,0,1.1-0.1,1.6-0.2
			c0.5-0.2,0.9-0.5,1.2-0.8l1.7,1.9c-1.2,1.2-2.9,1.9-4.6,1.8c-1.1,0-2.3-0.2-3.3-0.7c-0.9-0.5-1.7-1.2-2.2-2
			c-0.5-0.9-0.8-1.9-0.8-2.9c0-1,0.3-2,0.8-2.9c0.5-0.9,1.2-1.6,2.1-2c1.9-1,4.1-1,6,0c0.9,0.5,1.6,1.2,2.1,2
			C637.2,284.4,637.4,285.4,637.4,286.5L637.4,286.5z M631.6,283.1c-0.7,0-1.3,0.2-1.8,0.6c-0.5,0.4-0.8,1-0.9,1.7h5.5
			c-0.1-0.6-0.4-1.2-0.9-1.6C632.9,283.4,632.3,283.1,631.6,283.1L631.6,283.1z M646.3,280.7c1.2-0.1,2.4,0.4,3.3,1.2
			c0.9,1,1.4,2.3,1.3,3.7v6.4h-3.2v-5.8c0.1-0.7-0.1-1.4-0.6-2c-0.4-0.4-1-0.7-1.6-0.7c-0.7,0-1.4,0.2-1.9,0.8
			c-0.5,0.6-0.8,1.4-0.7,2.2v5.5h-3.2v-11.2h2.9v1.3c0.4-0.5,1-0.8,1.6-1.1C644.8,280.8,645.5,280.7,646.3,280.7L646.3,280.7z
			 M660.9,291.4c-0.3,0.3-0.7,0.4-1.2,0.5c-0.5,0.1-1,0.2-1.5,0.2c-1.1,0.1-2.2-0.3-3.1-1c-0.8-0.8-1.2-1.9-1.1-3v-4.6h-1.7v-2.5
			h1.7v-2.7h3.2v2.7h2.8v2.5h-2.8v4.5c0,0.4,0.1,0.8,0.4,1.1c0.3,0.3,0.7,0.4,1,0.4c0.5,0,1-0.2,1.4-0.5L660.9,291.4z"/>
		<path class="st5" d="M905.1,320.4h46.2v4.5h-46.2V320.4z"/>
		<path class="st6" d="M958,320.4h46.2v4.5H958V320.4z"/>
		<g>
			<defs>
				<rect id="SVGID_3_" x="992.9" y="387" width="48.4" height="47.4"/>
			</defs>
			<clipPath id="SVGID_4_">
				<use xlink:href="#SVGID_3_"  style="overflow:visible;"/>
			</clipPath>
			<g class="st7">
				<path class="st5" d="M1041,401.7l-9.6-7.5l-8.9-7c-0.2-0.1-0.3-0.2-0.5-0.2c-0.2,0-0.4,0-0.5,0.1c-0.2,0.1-0.3,0.2-0.4,0.4
					c-0.1,0.2-0.1,0.4-0.1,0.5v7.6c-31.4-1.4-28.9,16.6-26.9,22.3c2.7,7.5,15.5,28,10.6,8c-4.3-17.5,11.2-17.5,16.3-17.1v9.3
					c0,0.2,0.1,0.4,0.2,0.5c0.2,0.3,0.6,0.5,1,0.4c0.2,0,0.4-0.1,0.5-0.2l8.9-7.7l9.6-7.7c0.1-0.1,0.2-0.2,0.3-0.4
					c0.1-0.1,0.1-0.3,0.1-0.4c0-0.2,0-0.3-0.1-0.5C1041.2,402,1041.1,401.8,1041,401.7L1041,401.7z"/>
			</g>
		</g>
	</g>
</g>
<path class="st1" d="M876.9,561.6h6.6v83.1h-6.6V561.6z"/>
</svg>
