<svg viewBox="0 0 675.13 419.51" xmlns="http://www.w3.org/2000/svg" xmlns:xlink="http://www.w3.org/1999/xlink"><clipPath id="a" transform="translate(-12.63 -25.6)"><path d="m12.63 25.6h674.74v418.8h-674.74z"/></clipPath><clipPath id="b" transform="translate(-12.63 -25.6)"><path d="m635.79 242.44h30.38v29.76h-30.38z"/></clipPath><g clip-path="url(#a)"><path d="m15 376v8.17l.77 5.05 2.67 5.78 5 4.66 6.58 2.72 31-.77 56.55.39 57.33-.39 62.36-.39h66.62l65.07.39h75.14l76.7.77h52.29l75.56-84.38-30.22-124.8-5-17.89 1.13-23.31-1.16-103.85-2.32-5.83-4.65-5.44-5.81-5.88-16.27-3.11-8.13-1.16-467.13 1.59-8.14 1.56-6.58 3.5-5 4.27-4.64 7-1.17 9 .39 9.33.39 8.94v30.28l-.39 7 1.16 31.11-1.2 21.78-.77 61 .77 80.11v71.16h-39.12l-29.78-.36z" fill="#fff" transform="translate(-12.63 -25.6)"/><path d="m102.49 355.35h491.14v-291.25h-491.14zm2.33-288.92h486.49v286.57h-486.49z" fill="#232323" transform="translate(-12.63 -25.6)"/><path d="m350.39 54.37a6.61 6.61 0 1 0 -6.59-6.61c-.39 3.5 2.71 6.61 6.59 6.61zm0-8.94c1.16.39 1.93 1.17 1.55 2.33a1.68 1.68 0 0 1 -1.55 1.56c-1.17.39-1.94-.39-2.33-1.56s.39-1.94 1.55-2.33z" fill="#232323" transform="translate(-12.63 -25.6)"/><path d="m630.82 372.07h-15.11v-317.7a28.65 28.65 0 0 0 -28.66-28.77h-476.81a28.65 28.65 0 0 0 -28.66 28.77v317.7h-68.95v12.84c.39 10.5 8.52 18.66 19 18.66h580.21a19 19 0 0 0 19-19.05v-7.78h30.6v8.17h4.65m-579.87-330.54c0-13.22 10.85-23.72 24-24.1h477.2a24.17 24.17 0 0 1 24 24.1v317.7h-525.2zm539.95 330.15a14.58 14.58 0 0 1 -14.33 14.38h-580.23a14.16 14.16 0 0 1 -13.94-11.66h584.49v-2.33h-584.88v-8.17h608.5z" fill="#232323" transform="translate(-12.63 -25.6)"/><g fill="#a5a4a4"><path d="m587.44 102.2h-396.63v.8h396.63z" transform="translate(-12.63 -25.6)"/><path d="m587.44 128.65h-396.63v.77h396.63z" transform="translate(-12.63 -25.6)"/><path d="m587.44 155.09h-396.63v.78h396.63z" transform="translate(-12.63 -25.6)"/><path d="m587.44 181.53h-396.63v.78h396.63z" transform="translate(-12.63 -25.6)"/><path d="m587.44 208.36h-396.63v.78h396.63z" transform="translate(-12.63 -25.6)"/><path d="m587.44 234.81h-396.63v.77h396.63z" transform="translate(-12.63 -25.6)"/><path d="m587.44 261.25h-396.63v.75h396.63z" transform="translate(-12.63 -25.6)"/><path d="m587.44 287.69h-396.63v.78h396.63z" transform="translate(-12.63 -25.6)"/><path d="m587.44 314.52h-396.63v.78h396.63z" transform="translate(-12.63 -25.6)"/></g><path d="m211 205.25h366.8a13.75 13.75 0 0 1 13.56 13.61v5.84a13.76 13.76 0 0 1 -13.56 13.61h-366.8a13.76 13.76 0 0 1 -13.56-13.61v-5.84a13.5 13.5 0 0 1 13.56-13.61z" fill="#e3e1fd" transform="translate(-12.63 -25.6)"/><path d="m670.71 176.09h-11.62v3.91a7.3 7.3 0 0 1 -7.36 7h-57.32a7.37 7.37 0 0 1 -7.36-7.39v-3.91h-11.62a12.18 12.18 0 0 0 -12 12.44v239.15a12.1 12.1 0 0 0 12 12.06h95.28c6.59 0 12.4-5.45 12.4-12.06v-239.15c-.39-6.61-5.81-12.44-12.4-12.05z" fill="#fff" transform="translate(-12.63 -25.6)"/><path d="m670.71 171.74h-95.28a17.22 17.22 0 0 0 -17 17.11v239.15a17.22 17.22 0 0 0 17 17.11h95.28a17.23 17.23 0 0 0 17-17.11v-239.15c-.34-9.33-7.71-17.11-17-17.11zm12 256.26a12.5 12.5 0 0 1 -12.39 12.44h-95.32a12.09 12.09 0 0 1 -12-12.05v-239.54c0-6.61 5.43-12.44 12-12.44h11.62v3.89a7.3 7.3 0 0 0 7.36 7h57.71a7.37 7.37 0 0 0 7.36-7.39v-3.91h11.62a12.5 12.5 0 0 1 12.4 12.44z" fill="#232323" transform="translate(-12.63 -25.6)"/><path d="m272.92 143.81h158.81a11.26 11.26 0 0 1 11.27 11.28v147.38a11.25 11.25 0 0 1 -11.23 11.27h-158.85a11.25 11.25 0 0 1 -11.23-11.27v-147.38c-.39-6.22 4.65-11.28 11.23-11.28z" fill="#fff" transform="translate(-12.63 -25.6)"/><path d="m431.73 316.08h-158.81a12.85 12.85 0 0 1 -12.78-12.45v-147.76a12.93 12.93 0 0 1 12.78-12.87h158.81a12.93 12.93 0 0 1 12.78 12.84v147.4c-.39 7.39-5.81 12.84-12.78 12.84zm-158.81-169.94a9.61 9.61 0 0 0 -9.68 9.73v147.37a9.61 9.61 0 0 0 9.68 9.73h158.81a9.61 9.61 0 0 0 9.68-9.73v-147.37a9.61 9.61 0 0 0 -9.68-9.73z" fill="#4527ff" transform="translate(-12.63 -25.6)"/><path d="m322.89 263.58h57.71c5 0 8.52 5.06 8.52 10.5v1.17c0 6.22-4.26 10.5-8.52 10.5h-57.71c-5 0-8.53-5.06-8.53-10.5v-.78c-.36-5.83 3.88-10.89 8.53-10.89z" fill="#4527ff" transform="translate(-12.63 -25.6)"/><path d="m405 224.7h-105.35a5.15 5.15 0 0 1 -5-5.06v-8.55a4.81 4.81 0 0 1 5-4.67h105.35a5.14 5.14 0 0 1 5 5.05v8.53a5.07 5.07 0 0 1 -5 4.7zm-105.35-16.34a3.06 3.06 0 0 0 -3.1 3.11v8.53a3.06 3.06 0 0 0 3.1 3.11h105.35a3.06 3.06 0 0 0 3.1-3.11v-8.56a3.06 3.06 0 0 0 -3.1-3.11z" fill="#232323" transform="translate(-12.63 -25.6)"/><path d="m506.1 92.87a6.61 6.61 0 1 0 -6.59-6.61 6.6 6.6 0 0 0 6.59 6.61z" fill="#e3e1fd" transform="translate(-12.63 -25.6)"/><path d="m533.21 92.48a6.22 6.22 0 1 0 -6.2-6.22 6.21 6.21 0 0 0 6.2 6.22z" fill="#e3e1fd" transform="translate(-12.63 -25.6)"/><path d="m560.71 92.48a6.22 6.22 0 1 0 -6.2-6.22 6.21 6.21 0 0 0 6.2 6.22z" fill="#e3e1fd" transform="translate(-12.63 -25.6)"/><path d="m132.32 288.47h13.94a6.8 6.8 0 0 1 6.59 6.61v13.61a6.8 6.8 0 0 1 -6.59 6.61h-13.94a6.8 6.8 0 0 1 -6.59-6.61v-13.61a6.54 6.54 0 0 1 6.59-6.61z" fill="#e3e1fd" transform="translate(-12.63 -25.6)"/><path d="m138.9 293.52h.78a.84.84 0 0 1 .77.78v15.17a.83.83 0 0 1 -.77.77h-.78a.82.82 0 0 1 -.77-.77v-15.17a.83.83 0 0 1 .77-.78z" fill="#4527ff" transform="translate(-12.63 -25.6)"/><path d="m131.16 302.47v-.78a.83.83 0 0 1 .77-.78h15.07a.84.84 0 0 1 .77.78v.78a.84.84 0 0 1 -.77.78h-15.07a.83.83 0 0 1 -.77-.78z" fill="#4527ff" transform="translate(-12.63 -25.6)"/><g fill="#bcbcbc"><path d="m666.07 211.47h-86.77v.78h86.77z" transform="translate(-12.63 -25.6)"/><path d="m666.07 229.36h-86.77v.78h86.77z" transform="translate(-12.63 -25.6)"/><path d="m666.07 247.25h-86.77v.75h86.77z" transform="translate(-12.63 -25.6)"/><path d="m666.07 265.53h-86.77v.77h86.77z" transform="translate(-12.63 -25.6)"/><path d="m666.07 283.8h-86.77v.78h86.77z" transform="translate(-12.63 -25.6)"/><path d="m666.07 301.69h-86.77v.78h86.77z" transform="translate(-12.63 -25.6)"/><path d="m666.07 320h-86.77v.77h86.77z" transform="translate(-12.63 -25.6)"/><path d="m666.07 337.85h-86.77v.78h86.77z" transform="translate(-12.63 -25.6)"/><path d="m666.07 356.13h-86.77v.78h86.77z" transform="translate(-12.63 -25.6)"/><path d="m666.07 374h-86.77v.78h86.77z" transform="translate(-12.63 -25.6)"/><path d="m666.07 392.29h-86.77v.78h86.77z" transform="translate(-12.63 -25.6)"/><path d="m666.07 410.18h-86.77v.82h86.77z" transform="translate(-12.63 -25.6)"/></g><path d="m590.53 421.07h7a1.68 1.68 0 0 1 1.55 1.55v7a1.68 1.68 0 0 1 -1.55 1.56h-7a1.68 1.68 0 0 1 -1.55-1.56v-7c-.38-.77.39-1.55 1.55-1.55z" fill="#e3e1fd" transform="translate(-12.63 -25.6)"/><path d="m617.65 421.07h7a1.68 1.68 0 0 1 1.55 1.55v7a1.68 1.68 0 0 1 -1.55 1.56h-7a1.67 1.67 0 0 1 -1.55-1.56v-7a1.67 1.67 0 0 1 1.55-1.55z" fill="#e3e1fd" transform="translate(-12.63 -25.6)"/><path d="m644.76 421.07h7a1.67 1.67 0 0 1 1.55 1.55v7a1.67 1.67 0 0 1 -1.55 1.56h-7a1.68 1.68 0 0 1 -1.55-1.56v-7a1.68 1.68 0 0 1 1.55-1.55z" fill="#e3e1fd" transform="translate(-12.63 -25.6)"/><path d="m623.85 278.36h42.6c4.65 0 7.75 4.27 7.75 8.55v.78c0 5.06-3.87 8.55-7.75 8.55h-42.6c-4.65 0-7.75-4.27-7.75-8.55v-.78c0-4.28 3.48-8.55 7.75-8.55z" fill="#4527ff" transform="translate(-12.63 -25.6)"/><path d="m584 271.36h19.37a1.78 1.78 0 0 1 1.55 1.94v3.5a1.68 1.68 0 0 1 -1.55 1.56h-19.37a1.67 1.67 0 0 1 -1.55-1.56v-3.5a1.77 1.77 0 0 1 1.55-1.94z" fill="#e3e1fd" transform="translate(-12.63 -25.6)"/><path d="m615.33 271.36h3.48a1.77 1.77 0 0 1 1.55 1.94v3.5a1.67 1.67 0 0 1 -1.55 1.56h-3.48a1.67 1.67 0 0 1 -1.55-1.56v-3.5c-.39-1.16.38-1.94 1.55-1.94z" fill="#e3e1fd" transform="translate(-12.63 -25.6)"/><path d="m331.83 278.88v-7.39h1.57v6.09h3v1.3zm8.07-4.66a1 1 0 0 0 -.77.31 1.43 1.43 0 0 0 -.32.88h2.19a1.26 1.26 0 0 0 -.3-.88 1 1 0 0 0 -.8-.31zm.21 4.76a2.65 2.65 0 0 1 -2.9-2.89 3.15 3.15 0 0 1 .71-2.19 2.53 2.53 0 0 1 2-.77 2.48 2.48 0 0 1 1.86.68 2.58 2.58 0 0 1 .67 1.88v.75h-3.65a1.48 1.48 0 0 0 .39 1 1.38 1.38 0 0 0 1 .37 4.37 4.37 0 0 0 1-.1 6.08 6.08 0 0 0 1-.34v1.19a4.06 4.06 0 0 1 -.87.3 5.8 5.8 0 0 1 -1.21.14zm5.93-1.23a3.24 3.24 0 0 0 1-.18v1.15a3.45 3.45 0 0 1 -1.41.26 1.74 1.74 0 0 1 -1.35-.47 2 2 0 0 1 -.42-1.4v-2.72h-.73v-.65l.84-.52.45-1.19h1v1.2h1.58v1.16h-1.58v2.72a.59.59 0 0 0 .18.48.72.72 0 0 0 .4.16zm3.36-6.26.07.12a15.19 15.19 0 0 1 -.89 2.41h-1.1c.23-1 .4-1.84.5-2.53zm4.94 5.71a1.55 1.55 0 0 1 -.6 1.32 3 3 0 0 1 -1.81.46 5.26 5.26 0 0 1 -1.05-.09 3.46 3.46 0 0 1 -.81-.24v-1.27a7.16 7.16 0 0 0 1 .34 4 4 0 0 0 1 .13q.84 0 .84-.48a.42.42 0 0 0 -.11-.3 1.54 1.54 0 0 0 -.38-.25c-.19-.1-.43-.21-.73-.34a4.29 4.29 0 0 1 -1-.51 1.38 1.38 0 0 1 -.44-.53 1.66 1.66 0 0 1 -.14-.74 1.33 1.33 0 0 1 .58-1.16 2.81 2.81 0 0 1 1.66-.41 4.6 4.6 0 0 1 2 .44l-.46 1.11c-.29-.12-.55-.22-.8-.3a2.67 2.67 0 0 0 -.75-.11c-.45 0-.68.12-.68.36a.42.42 0 0 0 .22.36 6.05 6.05 0 0 0 1 .45 4.67 4.67 0 0 1 1 .5 1.42 1.42 0 0 1 .45.54 1.59 1.59 0 0 1 .01.72zm8.8-4v.8l-.88.23a1.56 1.56 0 0 1 .24.85 1.71 1.71 0 0 1 -.64 1.42 2.7 2.7 0 0 1 -1.75.5h-.28-.23a.52.52 0 0 0 -.24.41c0 .22.29.33.85.33h1a2.18 2.18 0 0 1 1.42.4 1.42 1.42 0 0 1 .49 1.17 1.73 1.73 0 0 1 -.83 1.53 4.24 4.24 0 0 1 -2.37.55 3.34 3.34 0 0 1 -1.81-.41 1.32 1.32 0 0 1 -.62-1.15 1.24 1.24 0 0 1 .32-.86 1.8 1.8 0 0 1 .93-.49 1.15 1.15 0 0 1 -.41-.33.76.76 0 0 1 -.18-.49.75.75 0 0 1 .19-.53 1.92 1.92 0 0 1 .54-.43 1.5 1.5 0 0 1 -.71-.61 1.9 1.9 0 0 1 -.25-1 1.77 1.77 0 0 1 .6-1.43 2.57 2.57 0 0 1 1.71-.5 4 4 0 0 1 .56 0l.42.06zm-4.36 6.44a.56.56 0 0 0 .31.5 1.59 1.59 0 0 0 .86.19 3 3 0 0 0 1.29-.23.68.68 0 0 0 .47-.62.43.43 0 0 0 -.27-.44 2.35 2.35 0 0 0 -.86-.12h-.8a1.23 1.23 0 0 0 -.71.19.64.64 0 0 0 -.29.56zm.56-4.59a1.15 1.15 0 0 0 .21.73.79.79 0 0 0 .64.26.78.78 0 0 0 .64-.26 1.22 1.22 0 0 0 .2-.73q0-1-.84-1c-.56.01-.85.35-.85 1.03zm6 1a2.3 2.3 0 0 0 .28 1.27 1.14 1.14 0 0 0 1.78 0 2.44 2.44 0 0 0 .27-1.28 2.32 2.32 0 0 0 -.27-1.25 1 1 0 0 0 -.9-.42 1 1 0 0 0 -.88.42 2.2 2.2 0 0 0 -.32 1.21zm3.91 0a3.07 3.07 0 0 1 -.73 2.16 2.64 2.64 0 0 1 -2 .78 2.79 2.79 0 0 1 -1.43-.36 2.4 2.4 0 0 1 -.95-1 3.35 3.35 0 0 1 -.34-1.56 3 3 0 0 1 .73-2.15 2.63 2.63 0 0 1 2-.76 2.82 2.82 0 0 1 1.44.35 2.32 2.32 0 0 1 .95 1 3.44 3.44 0 0 1 .29 1.49zm2.56.39h-1.23l-.26-4.94h1.68zm-1.51 1.72a.86.86 0 0 1 .23-.64.93.93 0 0 1 .66-.21.9.9 0 0 1 .65.22.85.85 0 0 1 .23.63.79.79 0 0 1 -.88.86.92.92 0 0 1 -.66-.22.86.86 0 0 1 -.27-.65z" fill="#fff" transform="translate(-12.63 -25.6)"/><path d="m118.25 116.6h-1.54v-7.38h4.23v1.28h-2.69v1.9h2.51v1.28h-2.51zm4-7.11q0-.75.84-.75t.84.75a.77.77 0 0 1 -.21.57.9.9 0 0 1 -.63.19c-.61 0-.89-.25-.89-.76zm1.61 7.11h-1.54v-5.6h1.54zm3.16 0h-1.54v-7.86h1.52zm4-4.66a1 1 0 0 0 -.77.32 1.39 1.39 0 0 0 -.32.88h2.07a1.19 1.19 0 0 0 -.3-.88 1 1 0 0 0 -.77-.32zm.21 4.76a2.93 2.93 0 0 1 -2.23-.7 2.85 2.85 0 0 1 -.76-2.13 3.12 3.12 0 0 1 .7-2.19 2.54 2.54 0 0 1 2-.78 2.5 2.5 0 0 1 1.86.68 2.58 2.58 0 0 1 .67 1.88v.75h-3.64a1.47 1.47 0 0 0 .38 1 1.41 1.41 0 0 0 1 .36 4.31 4.31 0 0 0 1-.1 5.21 5.21 0 0 0 .95-.34v1.19a3.2 3.2 0 0 1 -.87.3 5 5 0 0 1 -1.15.08zm7.5-1.78a1.56 1.56 0 0 1 -.61 1.33 3 3 0 0 1 -1.8.45 5.26 5.26 0 0 1 -1-.09 3.46 3.46 0 0 1 -.81-.24v-1.27a5.37 5.37 0 0 0 1 .34 4 4 0 0 0 .95.13q.84 0 .84-.48a.4.4 0 0 0 -.11-.29 1.53 1.53 0 0 0 -.39-.26c-.18-.1-.42-.21-.72-.34a4.54 4.54 0 0 1 -1-.5 1.58 1.58 0 0 1 -.45-.53 1.87 1.87 0 0 1 -.13-.75 1.33 1.33 0 0 1 .58-1.16 2.87 2.87 0 0 1 1.65-.41 4.83 4.83 0 0 1 2 .44l-.47 1.11a6.45 6.45 0 0 0 -.79-.29 2.45 2.45 0 0 0 -.75-.12c-.46 0-.68.12-.68.37a.44.44 0 0 0 .21.36 6.32 6.32 0 0 0 1 .45 4 4 0 0 1 1 .5 1.5 1.5 0 0 1 .45.53 1.59 1.59 0 0 1 -.06.72z" fill="#232323" transform="translate(-12.63 -25.6)"/><path d="m118.28 135.37h.51a1.68 1.68 0 0 0 1.08-.29 1.19 1.19 0 0 0 .06-1.64 1.37 1.37 0 0 0 -.94-.26h-.71zm3.53-1.17a2.27 2.27 0 0 1 -.74 1.82 3.19 3.19 0 0 1 -2.12.63h-.67v2.63h-1.57v-7.39h2.36a3.14 3.14 0 0 1 2 .58 2.11 2.11 0 0 1 .74 1.73zm6.49 5.08h-1.54v-3.28c0-.82-.31-1.22-.91-1.22a1 1 0 0 0 -.94.44 2.68 2.68 0 0 0 -.28 1.42v2.66h-1.54v-7.86h1.54v1.56.88.45h.09a1.77 1.77 0 0 1 1.63-.83 2 2 0 0 1 1.51.54 2.15 2.15 0 0 1 .52 1.53zm2.81-2.84a2.42 2.42 0 0 0 .27 1.27 1 1 0 0 0 .9.43 1 1 0 0 0 .88-.42 2.36 2.36 0 0 0 .28-1.28 2.2 2.2 0 0 0 -.28-1.25 1.15 1.15 0 0 0 -1.78 0 2.3 2.3 0 0 0 -.27 1.25zm3.9 0a3 3 0 0 1 -.73 2.16 2.61 2.61 0 0 1 -2 .78 2.79 2.79 0 0 1 -1.43-.36 2.37 2.37 0 0 1 -1-1 3.48 3.48 0 0 1 -.33-1.56 3 3 0 0 1 .72-2.15 2.66 2.66 0 0 1 2-.77 2.79 2.79 0 0 1 1.43.36 2.29 2.29 0 0 1 1 1 3.44 3.44 0 0 1 .33 1.54zm3.65 1.71a3.3 3.3 0 0 0 1-.18v1.15a3.45 3.45 0 0 1 -1.41.26 1.74 1.74 0 0 1 -1.35-.47 2 2 0 0 1 -.42-1.4v-2.72h-.74v-.65l.85-.52.45-1.19h1v1.2h1.58v1.16h-1.62v2.72a.59.59 0 0 0 .18.48.72.72 0 0 0 .48.16zm3.35-1.71a2.42 2.42 0 0 0 .27 1.27 1.14 1.14 0 0 0 1.78 0 2.46 2.46 0 0 0 .27-1.28 2.3 2.3 0 0 0 -.27-1.25 1.15 1.15 0 0 0 -1.78 0 2.3 2.3 0 0 0 -.28 1.26zm3.9 0a3 3 0 0 1 -.73 2.16 2.62 2.62 0 0 1 -2 .78 2.82 2.82 0 0 1 -1.44-.36 2.4 2.4 0 0 1 -.95-1 3.48 3.48 0 0 1 -.34-1.56 3 3 0 0 1 .73-2.15 2.65 2.65 0 0 1 2-.77 2.79 2.79 0 0 1 1.43.36 2.4 2.4 0 0 1 1 1 3.44 3.44 0 0 1 .3 1.54zm5.21 1.16a1.53 1.53 0 0 1 -.61 1.32 3 3 0 0 1 -1.8.46 5.26 5.26 0 0 1 -1.05-.09 3.46 3.46 0 0 1 -.81-.24v-1.27a5.38 5.38 0 0 0 1 .33 4 4 0 0 0 .95.14q.84 0 .84-.48a.42.42 0 0 0 -.11-.3 1.64 1.64 0 0 0 -.39-.25 6.3 6.3 0 0 0 -.72-.34 4.07 4.07 0 0 1 -1-.51 1.5 1.5 0 0 1 -.45-.53 1.82 1.82 0 0 1 -.13-.74 1.33 1.33 0 0 1 .58-1.16 2.79 2.79 0 0 1 1.65-.42 4.69 4.69 0 0 1 2 .45l-.47 1.11c-.28-.12-.54-.22-.79-.3a2.39 2.39 0 0 0 -.75-.11c-.46 0-.68.12-.68.36a.44.44 0 0 0 .21.36 6.32 6.32 0 0 0 1 .45 5 5 0 0 1 1 .5 1.53 1.53 0 0 1 .45.54 1.59 1.59 0 0 1 .08.72z" fill="#232323" transform="translate(-12.63 -25.6)"/><path d="m123.9 162h-1.78l-1-3.88c0-.13-.1-.42-.19-.85a7.81 7.81 0 0 1 -.15-.87c0 .18-.07.47-.15.88s-.15.68-.19.85l-1 3.87h-1.78l-1.89-7.38h1.54l1 4c.16.74.28 1.39.36 1.93 0-.19.06-.49.13-.89s.15-.71.21-.93l1.08-4.14h1.48l1.07 4.14q.08.27.18.84c.07.38.12.71.16 1 0-.26.09-.59.16-1s.14-.71.2-1l.94-4h1.54zm5-4.65a1 1 0 0 0 -.77.31 1.41 1.41 0 0 0 -.32.88h2.19a1.24 1.24 0 0 0 -.29-.88 1 1 0 0 0 -.78-.36zm.21 4.75a2.94 2.94 0 0 1 -2.13-.75 2.85 2.85 0 0 1 -.76-2.13 3.12 3.12 0 0 1 .78-2.22 2.54 2.54 0 0 1 2-.78 2.49 2.49 0 0 1 1.86.68 2.61 2.61 0 0 1 .67 1.89v.74h-3.64a1.44 1.44 0 0 0 .39 1 1.38 1.38 0 0 0 1 .37 4.21 4.21 0 0 0 1-.11 4.55 4.55 0 0 0 .95-.34v1.19a3.25 3.25 0 0 1 -.86.3 5.2 5.2 0 0 1 -1.23.11zm6.7-5.85a1.83 1.83 0 0 1 1.57.78 3.63 3.63 0 0 1 .56 2.14 3.48 3.48 0 0 1 -.59 2.17 1.86 1.86 0 0 1 -1.58.76 1.88 1.88 0 0 1 -1.56-.72h-.11l-.25.62h-1.15v-7.9h1.54v1.82c0 .24 0 .61-.06 1.12h.06a1.78 1.78 0 0 1 1.6-.84zm-.5 1.23a1 1 0 0 0 -.83.36 2 2 0 0 0 -.27 1.15v.17a2.35 2.35 0 0 0 .27 1.3 1 1 0 0 0 .86.4.87.87 0 0 0 .75-.44 2.35 2.35 0 0 0 .28-1.27 2.23 2.23 0 0 0 -.28-1.25.89.89 0 0 0 -.75-.47z" fill="#232323" transform="translate(-12.63 -25.6)"/><path d="m123.41 181.63a4 4 0 0 1 -.91 2.82 3.34 3.34 0 0 1 -2.6 1 3.38 3.38 0 0 1 -2.61-1 4.87 4.87 0 0 1 0-5.64 3.43 3.43 0 0 1 2.62-1 3.33 3.33 0 0 1 2.6 1 4 4 0 0 1 .9 2.82zm-5.38 0a3.05 3.05 0 0 0 .47 1.87 1.62 1.62 0 0 0 1.4.62c1.25 0 1.87-.83 1.87-2.49s-.62-2.49-1.86-2.49a1.66 1.66 0 0 0 -1.41.63 3 3 0 0 0 -.5 1.86zm9.91-.78h-1.33v4.49h-1.54v-4.49h-.85v-.74l.85-.42v-.41a1.86 1.86 0 0 1 .47-1.41 2.17 2.17 0 0 1 1.52-.45 3.88 3.88 0 0 1 1.42.24l-.39 1.13a3.14 3.14 0 0 0 -.86-.14.53.53 0 0 0 -.47.19.8.8 0 0 0 -.15.5v.35h1.33zm4 0h-1.34v4.49h-1.54v-4.49h-.84v-.74l.84-.42v-.41a1.82 1.82 0 0 1 .48-1.41 2.14 2.14 0 0 1 1.52-.45 4 4 0 0 1 1.42.24l-.4 1.13a3.07 3.07 0 0 0 -.85-.14.57.57 0 0 0 -.48.19.8.8 0 0 0 -.15.5v.35h1.4zm2.41 4.49h-1.54v-7.86h1.54zm1.55-7.11c0-.5.27-.75.83-.75s.84.25.84.75a.73.73 0 0 1 -.21.56.9.9 0 0 1 -.63.2c-.55.01-.82-.25-.82-.76zm1.6 7.11h-1.5v-5.65h1.54zm6.83 0h-1.53v-3.34a1.59 1.59 0 0 0 -.21-.91.79.79 0 0 0 -.7-.31 1 1 0 0 0 -.93.43 2.68 2.68 0 0 0 -.29 1.43v2.66h-1.54v-5.65h1.18l.21.72h.08a1.63 1.63 0 0 1 .71-.61 2.4 2.4 0 0 1 1-.22 1.94 1.94 0 0 1 1.49.54 2.14 2.14 0 0 1 .51 1.54zm3.93-4.66a1 1 0 0 0 -.77.31 1.43 1.43 0 0 0 -.32.88h2.16a1.26 1.26 0 0 0 -.3-.88 1 1 0 0 0 -.76-.31zm.21 4.76a2.64 2.64 0 0 1 -2.9-2.89 3.15 3.15 0 0 1 .71-2.19 2.54 2.54 0 0 1 2-.78 2.48 2.48 0 0 1 1.86.69 2.58 2.58 0 0 1 .67 1.88v.75h-3.65a1.5 1.5 0 0 0 .39 1 1.38 1.38 0 0 0 1 .37 4.31 4.31 0 0 0 1-.1 6.08 6.08 0 0 0 .95-.34v1.17a4.06 4.06 0 0 1 -.87.3 5.8 5.8 0 0 1 -1.15.14zm11.3-.1h-1.54v-3.34a1.59 1.59 0 0 0 -.21-.91.7.7 0 0 0 -.64-.31.94.94 0 0 0 -.86.43 2.84 2.84 0 0 0 -.27 1.43v2.66h-1.54v-5.65h1.18l.21.72h.08a1.54 1.54 0 0 1 .66-.6 2.08 2.08 0 0 1 1-.23 1.78 1.78 0 0 1 1.72.83h.14a1.56 1.56 0 0 1 .66-.61 2.33 2.33 0 0 1 1-.22 2 2 0 0 1 1.45.5 2.15 2.15 0 0 1 .5 1.58v3.68h-1.55v-3.3a1.68 1.68 0 0 0 -.2-.91.72.72 0 0 0 -.65-.31 1 1 0 0 0 -.84.4 2.27 2.27 0 0 0 -.28 1.28zm6.33-2.84a2.42 2.42 0 0 0 .27 1.27 1 1 0 0 0 .9.43 1 1 0 0 0 .88-.42 2.34 2.34 0 0 0 .28-1.28 2.25 2.25 0 0 0 -.28-1.25 1 1 0 0 0 -.89-.42 1 1 0 0 0 -.89.42 2.3 2.3 0 0 0 -.26 1.25zm3.9 0a3.06 3.06 0 0 1 -.72 2.16 2.64 2.64 0 0 1 -2 .78 2.79 2.79 0 0 1 -1.43-.36 2.37 2.37 0 0 1 -1-1 3.45 3.45 0 0 1 -.33-1.56 3 3 0 0 1 .72-2.15 2.66 2.66 0 0 1 2-.77 2.85 2.85 0 0 1 1.44.36 2.32 2.32 0 0 1 1 1 3.44 3.44 0 0 1 .32 1.54zm3.06 2.94a1.83 1.83 0 0 1 -1.56-.78 4.31 4.31 0 0 1 0-4.3 1.87 1.87 0 0 1 1.59-.78 1.85 1.85 0 0 1 1.63.83 6 6 0 0 1 -.12-1.12v-1.81h1.55v7.86h-1.15l-.3-.74h-.07a1.75 1.75 0 0 1 -1.56.84zm.54-1.23a1 1 0 0 0 .87-.34 2.06 2.06 0 0 0 .3-1.17v-.17a2.36 2.36 0 0 0 -.28-1.3 1 1 0 0 0 -.91-.39.91.91 0 0 0 -.81.44 2.4 2.4 0 0 0 -.28 1.26 2.26 2.26 0 0 0 .29 1.26 1 1 0 0 0 .83.41zm6.56-3.53a1 1 0 0 0 -.77.31 1.43 1.43 0 0 0 -.32.88h2.16a1.22 1.22 0 0 0 -.3-.88 1 1 0 0 0 -.76-.31zm.21 4.76a2.93 2.93 0 0 1 -2.13-.75 2.89 2.89 0 0 1 -.76-2.14 3.15 3.15 0 0 1 .7-2.19 2.54 2.54 0 0 1 2-.78 2.45 2.45 0 0 1 1.86.69 2.58 2.58 0 0 1 .67 1.88v.75h-3.64a1.45 1.45 0 0 0 .38 1 1.38 1.38 0 0 0 1 .37 4.31 4.31 0 0 0 1-.1 6.08 6.08 0 0 0 1-.34v1.17a4.06 4.06 0 0 1 -.87.3 5.8 5.8 0 0 1 -1.2.14z" fill="#232323" transform="translate(-12.63 -25.6)"/><path d="m635.49 289.58a1.92 1.92 0 0 1 -.72 1.58 3.15 3.15 0 0 1 -2 .57 4.76 4.76 0 0 1 -2.09-.44v-1.46a7.58 7.58 0 0 0 1.26.47 3.83 3.83 0 0 0 .95.14 1.38 1.38 0 0 0 .79-.2.67.67 0 0 0 .27-.58.65.65 0 0 0 -.12-.39 1.28 1.28 0 0 0 -.36-.32 7.62 7.62 0 0 0 -1-.5 4.91 4.91 0 0 1 -1-.61 2.43 2.43 0 0 1 -.55-.69 2 2 0 0 1 -.2-.9 1.93 1.93 0 0 1 .66-1.55 2.81 2.81 0 0 1 1.84-.56 4.36 4.36 0 0 1 1.1.14 7.9 7.9 0 0 1 1.09.38l-.5 1.22a9 9 0 0 0 -1-.34 3.35 3.35 0 0 0 -.76-.09 1.06 1.06 0 0 0 -.68.2.68.68 0 0 0 -.24.54.66.66 0 0 0 .1.37 1.06 1.06 0 0 0 .3.3 11.17 11.17 0 0 0 1 .51 3.75 3.75 0 0 1 1.41 1 1.87 1.87 0 0 1 .45 1.21zm6.43 2.05h-1.54v-3.29c0-.82-.31-1.23-.91-1.23a1.06 1.06 0 0 0 -.94.44 2.73 2.73 0 0 0 -.29 1.43v2.65h-1.53v-7.86h1.53v1.61q0 .18 0 .87v.46h.09a1.77 1.77 0 0 1 1.63-.83 2 2 0 0 1 1.51.54 2.11 2.11 0 0 1 .52 1.53zm5.17 0-.3-.77a2.3 2.3 0 0 1 -.81.69 2.65 2.65 0 0 1 -1.07.18 1.75 1.75 0 0 1 -1.28-.46 1.78 1.78 0 0 1 -.46-1.32 1.52 1.52 0 0 1 .62-1.33 3.75 3.75 0 0 1 1.9-.47h1v-.25a.77.77 0 0 0 -.88-.86 4.06 4.06 0 0 0 -1.59.41l-.51-1a4.59 4.59 0 0 1 2.16-.51 2.72 2.72 0 0 1 1.75.5 1.82 1.82 0 0 1 .6 1.5v3.76zm-.46-2.61h-.59a1.86 1.86 0 0 0 -1 .24.76.76 0 0 0 -.33.68c0 .43.25.65.75.65a1.2 1.2 0 0 0 .85-.31 1.11 1.11 0 0 0 .32-.82zm6.27-3.14a2.4 2.4 0 0 1 .52.05l-.11 1.44a2 2 0 0 0 -.46-.05 1.66 1.66 0 0 0 -1.15.38 1.37 1.37 0 0 0 -.41 1.06v2.87h-1.54v-5.63h1.17l.23.95h.07a2.19 2.19 0 0 1 .71-.77 1.78 1.78 0 0 1 .97-.3zm3.89 1.1a1 1 0 0 0 -.77.31 1.43 1.43 0 0 0 -.32.88h2.16a1.26 1.26 0 0 0 -.3-.88 1 1 0 0 0 -.77-.29zm.21 4.75a2.91 2.91 0 0 1 -2.13-.75 2.85 2.85 0 0 1 -.77-2.13 3.12 3.12 0 0 1 .71-2.19 2.88 2.88 0 0 1 3.83-.1 2.63 2.63 0 0 1 .67 1.89v.74h-3.64a1.47 1.47 0 0 0 .38 1 1.42 1.42 0 0 0 1 .37 4.3 4.3 0 0 0 1-.11 4.55 4.55 0 0 0 1-.34v1.19a3.2 3.2 0 0 1 -.87.3 5.1 5.1 0 0 1 -1.18.13z" fill="#fff" transform="translate(-12.63 -25.6)"/><path d="m281.94 183a5.34 5.34 0 0 1 -2.51-.59 4.75 4.75 0 0 1 -1.76-6.49 4.49 4.49 0 0 1 1.76-1.67 5.28 5.28 0 0 1 2.52-.61 5.18 5.18 0 0 1 2.12.42 4.13 4.13 0 0 1 1.6 1.19l-1.34 1.24a2.89 2.89 0 0 0 -2.28-1.06 3 3 0 0 0 -1.5.37 2.59 2.59 0 0 0 -1 1 3.3 3.3 0 0 0 0 3 2.71 2.71 0 0 0 1 1 3.08 3.08 0 0 0 1.5.36 2.9 2.9 0 0 0 2.28-1.07l1.34 1.24a4.25 4.25 0 0 1 -1.6 1.2 5.26 5.26 0 0 1 -2.13.47zm6.93-6.19a2.16 2.16 0 0 1 1-.76 3.71 3.71 0 0 1 1.42-.26v1.86h-.45a1.84 1.84 0 0 0 -1.36.5 1.92 1.92 0 0 0 -.49 1.44v3.29h-2v-7h1.93zm10.34 2.59s0 .2 0 .54h-5.26a1.63 1.63 0 0 0 .67 1 2.21 2.21 0 0 0 1.32.37 2.75 2.75 0 0 0 1-.15 2.22 2.22 0 0 0 .79-.52l1.08 1.17a3.61 3.61 0 0 1 -2.87 1.12 4.58 4.58 0 0 1 -2.08-.45 3.41 3.41 0 0 1 -1.4-1.28 3.48 3.48 0 0 1 -.49-1.85 3.58 3.58 0 0 1 .48-1.84 3.41 3.41 0 0 1 1.33-1.28 4.13 4.13 0 0 1 3.75 0 3.15 3.15 0 0 1 1.29 1.27 3.65 3.65 0 0 1 .39 1.85zm-3.61-2.09a1.72 1.72 0 0 0 -1.15.39 1.68 1.68 0 0 0 -.57 1.06h3.43a1.61 1.61 0 0 0 -.57-1 1.68 1.68 0 0 0 -1.14-.5zm7.57-1.52a3.6 3.6 0 0 1 2.48.78 2.92 2.92 0 0 1 .86 2.31v4h-1.88v-.87a2.25 2.25 0 0 1 -2.12 1 3.36 3.36 0 0 1 -1.4-.27 2 2 0 0 1 -.89-.75 1.93 1.93 0 0 1 -.31-1.09 1.82 1.82 0 0 1 .72-1.52 3.76 3.76 0 0 1 2.26-.56h1.61a1.3 1.3 0 0 0 -.4-1 1.77 1.77 0 0 0 -1.21-.36 3.41 3.41 0 0 0 -1.09.18 2.89 2.89 0 0 0 -.91.47l-.72-1.41a4.42 4.42 0 0 1 1.35-.62 6.13 6.13 0 0 1 1.65-.34zm-.16 5.8a1.75 1.75 0 0 0 .92-.23 1.3 1.3 0 0 0 .57-.71v-.71h-1.39c-.82 0-1.24.27-1.24.81a.74.74 0 0 0 .3.62 1.42 1.42 0 0 0 .83.17zm9.81.92a2.06 2.06 0 0 1 -.73.34 3.85 3.85 0 0 1 -.91.1 2.71 2.71 0 0 1 -1.92-.63 2.42 2.42 0 0 1 -.68-1.86v-2.86h-1.07v-1.6h1.07v-1.7h2v1.7h1.73v1.55h-1.71v2.83a1 1 0 0 0 .22.68.87.87 0 0 0 .65.24 1.29 1.29 0 0 0 .81-.26zm7.73-3.11s0 .2 0 .54h-5.26a1.64 1.64 0 0 0 .68 1 2.2 2.2 0 0 0 1.31.37 2.76 2.76 0 0 0 1-.15 2.22 2.22 0 0 0 .79-.52l1.07 1.17a3.59 3.59 0 0 1 -2.87 1.12 4.64 4.64 0 0 1 -2.08-.45 3.38 3.38 0 0 1 -1.39-1.28 3.49 3.49 0 0 1 -.5-1.85 3.58 3.58 0 0 1 .48-1.84 3.48 3.48 0 0 1 1.22-1.31 4.13 4.13 0 0 1 3.75 0 3.24 3.24 0 0 1 1.3 1.27 3.74 3.74 0 0 1 .5 1.88zm-3.6-2.09a1.72 1.72 0 0 0 -1.15.39 1.68 1.68 0 0 0 -.57 1.06h3.42a1.61 1.61 0 0 0 -.57-1 1.65 1.65 0 0 0 -1.08-.5zm12.83-1.52a2.82 2.82 0 0 1 2.08.78 3 3 0 0 1 .81 2.3v4h-2v-3.67a1.81 1.81 0 0 0 -.36-1.23 1.31 1.31 0 0 0 -1.05-.42 1.57 1.57 0 0 0 -1.26.45 1.91 1.91 0 0 0 -.46 1.4v3.44h-2v-7h1.92v.82a2.59 2.59 0 0 1 1-.67 3.24 3.24 0 0 1 1.32-.25zm11.6 3.61s0 .2 0 .54h-5.26a1.67 1.67 0 0 0 .67 1 2.25 2.25 0 0 0 1.32.37 2.85 2.85 0 0 0 1-.15 2.31 2.31 0 0 0 .79-.52l1.07 1.17a3.59 3.59 0 0 1 -2.97 1.09 4.61 4.61 0 0 1 -2.08-.45 3.47 3.47 0 0 1 -1.4-1.28 3.75 3.75 0 0 1 0-3.69 3.48 3.48 0 0 1 1.33-1.28 4.13 4.13 0 0 1 3.75 0 3.15 3.15 0 0 1 1.29 1.27 3.65 3.65 0 0 1 .49 1.88zm-3.61-2.09a1.74 1.74 0 0 0 -1.15.39 1.67 1.67 0 0 0 -.56 1.06h3.42a1.61 1.61 0 0 0 -.57-1 1.68 1.68 0 0 0 -1.14-.5zm16-1.42-2.53 7h-1.93l-1.57-4.32-1.61 4.32h-1.94l-2.51-7h1.9l1.64 4.71 1.71-4.71h1.7l1.66 4.71 1.69-4.71zm11.68-2.63v9.59h-1.93v-.85a2.66 2.66 0 0 1 -2.17.9 3.64 3.64 0 0 1 -1.78-.44 3.11 3.11 0 0 1 -1.24-1.25 4.11 4.11 0 0 1 0-3.78 3.11 3.11 0 0 1 1.24-1.25 3.64 3.64 0 0 1 1.78-.44 2.64 2.64 0 0 1 2.08.84v-3.37zm-3.75 8a1.73 1.73 0 0 0 1.27-.52 2 2 0 0 0 .5-1.41 2 2 0 0 0 -.5-1.4 1.8 1.8 0 0 0 -2.55 0 1.91 1.91 0 0 0 -.5 1.4 1.93 1.93 0 0 0 .5 1.41 1.73 1.73 0 0 0 1.28.51zm8.92 1.65a4.31 4.31 0 0 1 -2-.45 3.54 3.54 0 0 1 -1.35-1.28 3.54 3.54 0 0 1 1.35-5 4.19 4.19 0 0 1 2-.46 4.09 4.09 0 0 1 2 .46 3.44 3.44 0 0 1 1.35 1.27 3.56 3.56 0 0 1 -1.35 5 4.21 4.21 0 0 1 -2 .45zm0-1.65a1.7 1.7 0 0 0 1.27-.52 2 2 0 0 0 .5-1.41 2 2 0 0 0 -.5-1.4 1.67 1.67 0 0 0 -1.27-.53 1.72 1.72 0 0 0 -1.28.53 2 2 0 0 0 -.5 1.4 2 2 0 0 0 .5 1.41 1.75 1.75 0 0 0 1.28.51zm8.52 1.65a4.39 4.39 0 0 1 -2-.45 3.55 3.55 0 0 1 -1.38-1.28 3.74 3.74 0 0 1 0-3.7 3.53 3.53 0 0 1 1.38-1.27 4.27 4.27 0 0 1 2-.46 3.82 3.82 0 0 1 1.92.46 2.73 2.73 0 0 1 1.2 1.31l-1.56.84a1.73 1.73 0 0 0 -1.57-1 1.78 1.78 0 0 0 -1.3.52 2.17 2.17 0 0 0 0 2.82 1.78 1.78 0 0 0 1.3.52 1.71 1.71 0 0 0 1.57-1l1.56.85a2.84 2.84 0 0 1 -1.2 1.3 3.82 3.82 0 0 1 -1.92.53zm11.29-7.06v7h-1.92v-.85a2.76 2.76 0 0 1 -.95.7 3.18 3.18 0 0 1 -1.21.23 3 3 0 0 1 -2.17-.79 3.14 3.14 0 0 1 -.8-2.34v-3.93h2v3.64q0 1.68 1.41 1.68a1.52 1.52 0 0 0 1.16-.47 2 2 0 0 0 .44-1.41v-3.44zm10.77-.1a2.77 2.77 0 0 1 2.07.78 3.06 3.06 0 0 1 .77 2.3v4h-2v-3.67a1.86 1.86 0 0 0 -.35-1.23 1.18 1.18 0 0 0 -1-.42 1.42 1.42 0 0 0 -1.12.47 1.93 1.93 0 0 0 -.42 1.36v3.49h-2v-3.67q0-1.65-1.32-1.65a1.4 1.4 0 0 0 -1.11.47 1.93 1.93 0 0 0 -.42 1.36v3.49h-2v-7h1.92v.8a2.65 2.65 0 0 1 .94-.67 3.39 3.39 0 0 1 1.25-.23 2.92 2.92 0 0 1 1.33.3 2.33 2.33 0 0 1 .95.84 2.9 2.9 0 0 1 1.08-.84 3.39 3.39 0 0 1 1.43-.29zm11.54 3.61s0 .2 0 .54h-5.26a1.63 1.63 0 0 0 .67 1 2.25 2.25 0 0 0 1.32.37 2.85 2.85 0 0 0 1-.15 2.27 2.27 0 0 0 .78-.52l1.08 1.17a3.61 3.61 0 0 1 -2.87 1.12 4.58 4.58 0 0 1 -2.08-.45 3.41 3.41 0 0 1 -1.4-1.28 3.48 3.48 0 0 1 -.49-1.85 3.58 3.58 0 0 1 .48-1.84 3.48 3.48 0 0 1 1.33-1.28 4.13 4.13 0 0 1 3.75 0 3.15 3.15 0 0 1 1.29 1.27 3.65 3.65 0 0 1 .4 1.89zm-3.61-2.09a1.74 1.74 0 0 0 -1.15.39 1.68 1.68 0 0 0 -.57 1.06h3.43a1.61 1.61 0 0 0 -.57-1 1.68 1.68 0 0 0 -1.14-.46zm9.18-1.52a2.84 2.84 0 0 1 2.08.78 3.06 3.06 0 0 1 .8 2.3v4h-2v-3.67a1.81 1.81 0 0 0 -.36-1.23 1.3 1.3 0 0 0 -1-.42 1.6 1.6 0 0 0 -1.22.48 2 2 0 0 0 -.45 1.4v3.44h-2v-7h1.84v.82a2.63 2.63 0 0 1 1-.67 3.29 3.29 0 0 1 1.31-.24zm9.19 6.72a2.06 2.06 0 0 1 -.73.34 3.85 3.85 0 0 1 -.91.1 2.73 2.73 0 0 1 -1.92-.63 2.42 2.42 0 0 1 -.68-1.86v-2.86h-1.07v-1.56h1.07v-1.7h2v1.7h1.74v1.55h-1.73v2.83a1 1 0 0 0 .22.68.87.87 0 0 0 .65.24 1.29 1.29 0 0 0 .86-.3z" fill="#232323" transform="translate(-12.63 -25.6)"/><path d="m568.05 175.03h28.97v2.83h-28.97z" fill="#4527ff"/><path d="m601.26 175.03h28.97v2.83h-28.97z" fill="#bcbcbc"/><g clip-path="url(#b)"><path d="m665.93 251.68-6-4.72-5.6-4.39a.68.68 0 0 0 -.33-.13.59.59 0 0 0 -.34.06.55.55 0 0 0 -.26.24.67.67 0 0 0 -.09.34v4.74c-19.68-.9-18.14 10.4-16.88 14 1.68 4.72 9.71 17.56 6.63 5-2.7-11 7-11 10.22-10.73v5.82a.7.7 0 0 0 .12.34.64.64 0 0 0 .62.28.58.58 0 0 0 .33-.14l5.6-4.85 6-4.83a.63.63 0 0 0 .18-.22.58.58 0 0 0 .07-.28.59.59 0 0 0 -.07-.29.63.63 0 0 0 -.2-.24z" fill="#4527ff" transform="translate(-12.63 -25.6)"/></g></g><path d="m550.4 326.36h4.12v52.15h-4.12z" fill="#fff"/></svg>