<svg fill="none" height="52" viewBox="0 0 52 52" width="52" xmlns="http://www.w3.org/2000/svg"><path clip-rule="evenodd" d="m11.5077 47.3953c4.2567 2.842 9.2606 4.3577 14.3789 4.3555 6.8577-.0112 13.4312-2.741 18.2795-7.591s7.5759-11.4244 7.5847-18.2822c.0005-5.1182-1.517-10.1216-4.3605-14.3773-2.8434-4.25575-6.8851-7.57261-11.6138-9.53107-4.7288-1.958461-9.9321-2.470546-14.9519-1.471484-5.0198.999064-9.6305 3.464384-13.24902 7.084154-3.61852 3.6198-6.08225 8.2314-7.079578 13.2515-.997326 5.0201-.4834447 10.2233 1.476648 14.9513 1.9601 4.7281 5.27835 8.7686 9.53505 11.6106zm4.9058-6.6816h1.2417c.7862 0 1.3587-.1742 1.7175-.5226.3595-.3484.5404-.9492.5404-1.7978v-21.5115h3.0061v21.6097c0 3.225-1.6378 4.8374-4.9133 4.8374h-1.6036zm3.5153-27.7715c-.1805-.1702-.3243-.3754-.4226-.6032-.0983-.2277-.149-.4731-.149-.7212 0-.248.0507-.4935.149-.7212s.2421-.433.4226-.6031c.4156-.35108.9484-.53216 1.4918-.50701.5267-.02154 1.0416.15993 1.4383.50701.176.1727.3158.3788.4112.6062s.1446.4715.1446.7181-.0492.4908-.1446.7181c-.0954.2274-.2352.4335-.4112.6063-.3967.347-.9116.5285-1.4383.507-.5434.0251-1.0762-.156-1.4918-.507zm14.2204 19.3473v-2.6153h-1.8447c-1.0452 0-1.7807-.2121-2.2065-.6365-.4259-.4243-.6388-1.2142-.6388-2.3695v-9.7441h4.6431v-2.5817h-4.6431v-4.46667h-3.0038v4.46667h-2.68v2.5817h2.68v9.6771c-.0015 2.0502.4511 3.5108 1.3579 4.3818.9067.871 2.2742 1.3065 4.1026 1.3065z" fill="#3b95ff" fill-rule="evenodd"/></svg>