<svg viewBox="0 0 300 300" xmlns="http://www.w3.org/2000/svg"><g fill="#2e2e2e"><path d="m105.58 213.58h5.56q5.28 0 7.69-2.34c1.61-1.56 2.42-4.25 2.42-8.05v-96.32h13.46v96.76q0 21.66-22 21.66h-7.18zm15.74-124.35a8.15 8.15 0 0 1 0-11.86 9.66 9.66 0 0 1 6.68-2.27 9.21 9.21 0 0 1 6.44 2.27 8.31 8.31 0 0 1 0 11.86 9.21 9.21 0 0 1 -6.44 2.27 9.66 9.66 0 0 1 -6.68-2.27z"/><path d="m185 164.15v11.71h-10q-12.28 0-18.37-5.85t-6.08-19.62v-43.33h-12v-11.56h12v-20h13.45v20h20.79v11.56h-20.79v43.63q0 7.76 2.86 10.61t9.88 2.85z"/><path d="m148 263a115.86 115.86 0 1 1 115.81-115.85 116 116 0 0 1 -115.81 115.85zm0-219.22a103.36 103.36 0 1 0 103.31 103.37 103.48 103.48 0 0 0 -103.31-103.36z"/></g></svg>